<svg width="100" height="100" viewBox="0 0 100 100" fill="none" xmlns="http://www.w3.org/2000/svg">
<rect width="100" height="100" rx="50" fill="#D4D6DA"/>
<path d="M70.6897 35.2309C70.4031 34.9419 70.062 34.7125 69.6863 34.556C69.3106 34.3994 68.9076 34.3188 68.5005 34.3188C68.0935 34.3188 67.6905 34.3994 67.3148 34.556C66.939 34.7125 66.598 34.9419 66.3114 35.2309L43.3405 58.2326L33.6897 48.5509C33.3921 48.2634 33.0408 48.0374 32.6558 47.8856C32.2708 47.7339 31.8598 47.6595 31.446 47.6667C31.0323 47.6738 30.624 47.7624 30.2446 47.9274C29.8651 48.0923 29.5218 48.3304 29.2343 48.628C28.9468 48.9256 28.7207 49.2769 28.569 49.6619C28.4173 50.0468 28.3429 50.4579 28.3501 50.8716C28.3572 51.2854 28.4458 51.6936 28.6108 52.0731C28.7757 52.4526 29.0138 52.7959 29.3114 53.0834L41.1514 64.9234C41.438 65.2124 41.779 65.4418 42.1548 65.5983C42.5305 65.7548 42.9335 65.8354 43.3405 65.8354C43.7476 65.8354 44.1506 65.7548 44.5263 65.5983C44.902 65.4418 45.2431 65.2124 45.5297 64.9234L70.6897 39.7634C71.0027 39.4747 71.2524 39.1242 71.4233 38.7342C71.5941 38.3442 71.6823 37.923 71.6823 37.4971C71.6823 37.0713 71.5941 36.6501 71.4233 36.2601C71.2524 35.87 71.0027 35.5196 70.6897 35.2309Z" fill="black"/>
</svg>
