<svg width="24" height="25" viewBox="0 0 24 25" fill="none" xmlns="http://www.w3.org/2000/svg">
<path d="M12.3 12.845C12.8336 12.3831 13.2616 11.8119 13.5549 11.17C13.8482 10.5282 14 9.83071 14 9.125C14 7.79892 13.4732 6.52715 12.5355 5.58947C11.5979 4.65178 10.3261 4.125 9 4.125C7.67392 4.125 6.40215 4.65178 5.46447 5.58947C4.52678 6.52715 4 7.79892 4 9.125C3.99999 9.83071 4.1518 10.5282 4.44513 11.17C4.73845 11.8119 5.16642 12.3831 5.7 12.845C4.30014 13.4789 3.11247 14.5025 2.27898 15.7935C1.4455 17.0846 1.00147 18.5883 1 20.125C1 20.3902 1.10536 20.6446 1.29289 20.8321C1.48043 21.0196 1.73478 21.125 2 21.125C2.26522 21.125 2.51957 21.0196 2.70711 20.8321C2.89464 20.6446 3 20.3902 3 20.125C3 18.5337 3.63214 17.0076 4.75736 15.8824C5.88258 14.7571 7.4087 14.125 9 14.125C10.5913 14.125 12.1174 14.7571 13.2426 15.8824C14.3679 17.0076 15 18.5337 15 20.125C15 20.3902 15.1054 20.6446 15.2929 20.8321C15.4804 21.0196 15.7348 21.125 16 21.125C16.2652 21.125 16.5196 21.0196 16.7071 20.8321C16.8946 20.6446 17 20.3902 17 20.125C16.9985 18.5883 16.5545 17.0846 15.721 15.7935C14.8875 14.5025 13.6999 13.4789 12.3 12.845ZM9 12.125C8.40666 12.125 7.82664 11.9491 7.33329 11.6194C6.83994 11.2898 6.45542 10.8212 6.22836 10.2731C6.0013 9.72487 5.94189 9.12167 6.05764 8.53973C6.1734 7.95779 6.45912 7.42324 6.87868 7.00368C7.29824 6.58412 7.83279 6.2984 8.41473 6.18264C8.99667 6.06689 9.59987 6.1263 10.1481 6.35336C10.6962 6.58042 11.1648 6.96494 11.4944 7.45829C11.8241 7.95164 12 8.53166 12 9.125C12 9.92065 11.6839 10.6837 11.1213 11.2463C10.5587 11.8089 9.79565 12.125 9 12.125ZM18.74 12.445C19.38 11.7243 19.798 10.8341 19.9438 9.88134C20.0896 8.92862 19.9569 7.95407 19.5618 7.075C19.1666 6.19593 18.5258 5.4498 17.7165 4.92642C16.9071 4.40305 15.9638 4.12474 15 4.125C14.7348 4.125 14.4804 4.23036 14.2929 4.41789C14.1054 4.60543 14 4.85978 14 5.125C14 5.39022 14.1054 5.64457 14.2929 5.83211C14.4804 6.01964 14.7348 6.125 15 6.125C15.7956 6.125 16.5587 6.44107 17.1213 7.00368C17.6839 7.56629 18 8.32935 18 9.125C17.9986 9.65024 17.8593 10.1659 17.5961 10.6204C17.3328 11.0749 16.9549 11.4524 16.5 11.715C16.3517 11.8005 16.2279 11.9227 16.1404 12.0697C16.0528 12.2168 16.0045 12.3839 16 12.555C15.9958 12.7248 16.0349 12.8928 16.1137 13.0433C16.1924 13.1937 16.3081 13.3217 16.45 13.415L16.84 13.675L16.97 13.745C18.1754 14.3167 19.1923 15.221 19.901 16.3513C20.6096 17.4816 20.9805 18.7909 20.97 20.125C20.97 20.3902 21.0754 20.6446 21.2629 20.8321C21.4504 21.0196 21.7048 21.125 21.97 21.125C22.2352 21.125 22.4896 21.0196 22.6771 20.8321C22.8646 20.6446 22.97 20.3902 22.97 20.125C22.9782 18.5904 22.5938 17.0793 21.8535 15.7351C21.1131 14.3909 20.0413 13.2583 18.74 12.445Z" fill="#EEF3FF"/>
</svg>
