<svg width="112" height="30" viewBox="0 0 112 30" fill="none" xmlns="http://www.w3.org/2000/svg">
<path d="M0 19.2553C0 17.1374 0.427221 15.3164 1.28166 13.7925C2.1361 12.2428 3.32981 11.0676 4.86278 10.2669C6.42088 9.46622 8.21772 9.06588 10.2533 9.06588C12.4899 9.06588 14.2993 9.55662 15.6815 10.5381C17.0637 11.4938 18.0438 12.7206 18.6218 14.2187C19.1998 15.6909 19.4888 17.2665 19.4888 18.9454H7.87846C7.95385 19.6169 8.0795 20.2497 8.25542 20.8438C8.60725 22.0835 9.19781 23.065 10.0271 23.7882C10.8564 24.4856 11.9622 24.8343 13.3444 24.8343C14.2742 24.8343 15.1538 24.7052 15.9831 24.4469C16.8375 24.1886 17.8051 23.7495 18.8857 23.1296L19.0365 23.2458C18.76 24.1757 18.2323 25.1313 17.4532 26.1128C16.6742 27.0685 15.6564 27.8821 14.3999 28.5536C13.1433 29.1994 11.6983 29.5222 10.0648 29.5222C8.4062 29.5222 6.79784 29.1606 5.23974 28.4374C3.70677 27.6884 2.45024 26.539 1.47014 24.9893C0.490047 23.4396 0 21.5282 0 19.2553ZM12.5528 16.3883C12.5528 14.7869 12.3894 13.4697 12.0627 12.4365C11.7611 11.3775 11.1203 10.8481 10.1402 10.8481C9.16012 10.8481 8.50672 11.3775 8.18002 12.4365C7.85333 13.4697 7.68998 14.6965 7.68998 16.1171C7.68998 16.2204 7.68998 16.3237 7.68998 16.4271C7.68998 16.9436 7.71511 17.4473 7.76537 17.938L12.5528 16.3883Z" fill="#3769F1"/>
<path d="M22.192 13.5213C22.8706 12.0233 23.7753 10.9126 24.9061 10.1894C26.037 9.4404 27.2684 9.06588 28.6003 9.06588C30.1082 9.06588 31.4778 9.51788 32.7092 10.4219C33.3123 10.9126 33.8149 11.4809 34.217 12.1266V7.39993C34.217 5.64357 33.639 3.62894 32.483 1.35601C32.4076 1.22686 32.3699 1.14938 32.3699 1.12355V0.968578L41.3039 0V22.4322C41.3039 23.4654 41.3918 24.434 41.5678 25.338C41.7688 26.2161 42.0327 27.2751 42.3594 28.5149L42.4725 28.9023V29.0573H36.0641C35.9636 28.9023 35.8631 28.7474 35.7626 28.5924C35.6872 28.4374 35.5992 28.2824 35.4987 28.1275C35.0966 27.4818 34.795 26.8877 34.594 26.3453C34.5689 26.2936 34.5563 26.2549 34.5563 26.2291C34.4306 25.9708 34.3427 25.6608 34.2924 25.2992C34.2422 24.9118 34.217 24.4856 34.217 24.0207V13.8313C33.9909 13.6763 33.7521 13.5472 33.5008 13.4438C32.9982 13.263 32.5207 13.1726 32.0684 13.1726C31.2642 13.1726 30.6234 13.4438 30.1459 13.9862C29.6684 14.5028 29.3291 15.2002 29.1281 16.0784C28.927 16.9307 28.8265 17.9122 28.8265 19.0228C28.8265 21.0117 29.0653 22.6518 29.5427 23.9432C30.0454 25.2347 30.9375 25.8804 32.2192 25.8804C32.6715 25.8804 33.1616 25.7771 33.6893 25.5704C33.8903 25.5188 34.0914 25.4284 34.2924 25.2992C34.6443 25.1184 34.9961 24.8989 35.3479 24.6406L35.461 24.6019C35.2097 25.2476 34.9207 25.8287 34.594 26.3453C34.0411 27.1976 33.3877 27.8563 32.6338 28.3212C31.4024 29.096 30.1584 29.4835 28.9019 29.4835C27.6202 29.4835 26.3888 29.096 25.2077 28.3212C24.0266 27.5463 23.059 26.384 22.3051 24.8343C21.5512 23.2588 21.1742 21.3216 21.1742 19.0228C21.1742 16.8532 21.5135 15.0194 22.192 13.5213Z" fill="#3769F1"/>
<path d="M44.488 9.29834H52.7434V21.9673C52.7434 23.0263 52.9822 23.7882 53.4596 24.2532C53.9371 24.6923 54.5654 24.9118 55.3444 24.9118C55.9978 24.9118 56.7769 24.7568 57.6816 24.4469C57.9832 24.3694 58.2847 24.2661 58.5863 24.1369L58.3224 24.7568C58.1968 25.0668 58.046 25.3767 57.8701 25.6867C57.3423 26.6423 56.6889 27.4559 55.9099 28.1275C54.8795 29.0056 53.5476 29.4447 51.9141 29.4447C50.0796 29.4447 48.5717 28.8765 47.3906 27.74C46.2346 26.5777 45.6566 25.0022 45.6566 23.0134V15.9234C45.6566 14.8903 45.5561 13.9346 45.355 13.0564C45.1791 12.1524 44.9278 11.0805 44.6011 9.84074L44.488 9.45331V9.29834ZM56.4753 9.45331V9.29834H64.7307V22.4322C64.7307 23.4654 64.8187 24.434 64.9946 25.338C65.1957 26.2161 65.4595 27.2751 65.7862 28.5149L65.8993 28.9023V29.0573H59.4533L59.3025 28.7861C58.7748 27.9338 58.3727 27.1072 58.0963 26.3065C58.0209 26.1257 57.9455 25.9191 57.8701 25.6867C57.7947 25.2992 57.7319 24.886 57.6816 24.4469C57.6565 24.1369 57.6439 23.8012 57.6439 23.4396V15.9234C57.6439 14.8903 57.5434 13.9346 57.3423 13.0564C57.1664 12.1524 56.9151 11.0805 56.5884 9.84074L56.4753 9.45331Z" fill="#3769F1"/>
<path d="M67.7685 0.929836L68.9371 0.774863L76.137 0V22.4322C76.137 23.4654 76.225 24.434 76.4009 25.338C76.6019 26.2161 76.8658 27.2751 77.1925 28.5149L77.3056 28.9023V29.0573H67.8816V28.9023L67.9947 28.5149C68.3214 27.2751 68.5727 26.2161 68.7486 25.338C68.9497 24.434 69.0502 23.4654 69.0502 22.4322V7.39993C69.0502 6.36678 68.9371 5.37237 68.7109 4.41671C68.4847 3.43522 68.2209 2.45373 67.9193 1.47224C67.8439 1.23978 67.8062 1.11064 67.8062 1.08481L67.7685 0.929836ZM76.6271 18.8679L80.7736 15.0323C81.7035 14.2058 82.1684 13.3276 82.1684 12.3978C82.1684 12.372 82.1558 12.1137 82.1307 11.6229C82.1055 11.1063 81.9171 10.4735 81.5652 9.72451L81.4898 9.49205V9.29834H89.6322V9.49205L82.583 15.8459L89.7453 28.8636V29.0573H81.5652L76.6271 18.8679Z" fill="#3769F1"/>
<path d="M90.928 23.0521C90.928 21.7865 91.2547 20.663 91.9081 19.6815C92.5615 18.7 93.441 17.951 94.5468 17.4344C95.6525 16.892 96.8337 16.6208 98.0902 16.6208C98.6179 16.6208 99.1959 16.6724 99.8242 16.7758C100.478 16.8532 101.144 16.9953 101.822 17.2019C102.023 17.2794 102.224 17.3569 102.425 17.4344V15.3423C102.425 13.7409 102.375 12.6173 102.274 11.9716C102.199 11.3259 101.973 11.003 101.596 11.003C100.917 11.003 99.7488 11.5454 98.0902 12.6302C96.4567 13.6892 94.685 14.9807 92.7751 16.5045H92.5866V10.3831C94.396 9.96988 96.1426 9.64703 97.8263 9.41457C99.5352 9.18211 100.943 9.06588 102.048 9.06588C104.687 9.06588 106.584 9.69868 107.74 10.9643C108.922 12.2041 109.512 13.8571 109.512 15.9234V22.5872C109.512 23.9303 109.625 24.7827 109.851 25.1443C110.103 25.48 110.379 25.6479 110.681 25.6479C111.007 25.6479 111.409 25.5188 111.887 25.2605L112 25.3767C111.925 26.5648 111.472 27.5463 110.643 28.3212C109.839 29.0702 108.746 29.4447 107.363 29.4447C105.805 29.4447 104.599 28.9411 103.745 27.9338C103.292 27.4172 102.953 26.8102 102.727 26.1128C102.651 25.7771 102.576 25.4284 102.501 25.0668C102.45 24.6277 102.425 24.1628 102.425 23.672V18.7904C102.274 18.7387 102.136 18.7 102.011 18.6742C101.759 18.6483 101.521 18.6354 101.294 18.6354C100.591 18.6354 100.013 18.7775 99.5603 19.0616C99.108 19.3199 98.7813 19.6944 98.5802 20.1851C98.3792 20.6759 98.2787 21.2441 98.2787 21.8898C98.2787 22.9488 98.5174 23.827 98.9949 24.5244C99.4975 25.1959 100.201 25.5317 101.106 25.5317C101.508 25.5317 101.872 25.4413 102.199 25.2605C102.3 25.2088 102.4 25.1443 102.501 25.0668C102.727 24.886 102.953 24.6535 103.179 24.3694L103.141 25.028C103.066 25.3638 102.928 25.7254 102.727 26.1128C102.601 26.3711 102.438 26.6423 102.237 26.9264C101.734 27.6238 101.043 28.2179 100.163 28.7086C99.2839 29.1994 98.241 29.4447 97.0347 29.4447C95.753 29.4447 94.6473 29.1348 93.7175 28.5149C92.7876 27.895 92.084 27.0943 91.6065 26.1128C91.1541 25.1313 90.928 24.1111 90.928 23.0521Z" fill="#3769F1"/>
</svg>
