<svg width="81" height="29" viewBox="0 0 81 29" fill="none" xmlns="http://www.w3.org/2000/svg">
<path d="M0 14.5C0 6.49187 6.49187 0 14.5 0H66.5C74.5081 0 81 6.49187 81 14.5C81 22.5081 74.5081 29 66.5 29H14.5C6.49187 29 0 22.5081 0 14.5Z" fill="#B2B8BD"/>
<path d="M21.9361 20V9.81818H28.0412V10.9119H23.169V14.3523H27.5838V15.446H23.169V20H21.9361ZM32.2409 20.179C31.757 20.179 31.3179 20.0878 30.9235 19.9055C30.5291 19.7199 30.2158 19.4531 29.9838 19.1051C29.7518 18.7538 29.6358 18.3295 29.6358 17.8324C29.6358 17.3949 29.722 17.0402 29.8944 16.7685C30.0667 16.4934 30.2971 16.2779 30.5854 16.1222C30.8738 15.9664 31.1919 15.8504 31.54 15.7741C31.8913 15.6946 32.2443 15.6316 32.5989 15.5852C33.0629 15.5256 33.4391 15.4808 33.7275 15.451C34.0191 15.4179 34.2312 15.3632 34.3638 15.2869C34.4997 15.2107 34.5676 15.0781 34.5676 14.8892V14.8494C34.5676 14.3589 34.4334 13.9777 34.165 13.706C33.8998 13.4342 33.4971 13.2983 32.9569 13.2983C32.3967 13.2983 31.9576 13.4209 31.6394 13.6662C31.3212 13.9115 31.0975 14.1733 30.9682 14.4517L29.8546 14.054C30.0534 13.59 30.3186 13.2287 30.65 12.9702C30.9848 12.7083 31.3494 12.526 31.7438 12.4233C32.1415 12.3172 32.5326 12.2642 32.9171 12.2642C33.1623 12.2642 33.4441 12.294 33.7623 12.3537C34.0837 12.41 34.3936 12.5277 34.6919 12.7067C34.9935 12.8857 35.2438 13.1558 35.4426 13.517C35.6415 13.8783 35.7409 14.3622 35.7409 14.9688V20H34.5676V18.9659H34.508C34.4284 19.1316 34.2959 19.3089 34.1103 19.4979C33.9247 19.6868 33.6777 19.8475 33.3695 19.9801C33.0613 20.1127 32.6851 20.179 32.2409 20.179ZM32.4199 19.125C32.8839 19.125 33.275 19.0339 33.5932 18.8516C33.9147 18.6693 34.1567 18.4339 34.3191 18.1456C34.4848 17.8572 34.5676 17.554 34.5676 17.2358V16.1619C34.5179 16.2216 34.4086 16.2763 34.2395 16.326C34.0738 16.3724 33.8816 16.4138 33.6628 16.4503C33.4474 16.4834 33.2369 16.5133 33.0314 16.5398C32.8292 16.563 32.6652 16.5829 32.5392 16.5994C32.2343 16.6392 31.9493 16.7038 31.6841 16.7933C31.4223 16.8795 31.2102 17.0104 31.0478 17.1861C30.8887 17.3584 30.8091 17.5937 30.8091 17.892C30.8091 18.2997 30.9599 18.608 31.2615 18.8168C31.5665 19.0223 31.9526 19.125 32.4199 19.125ZM37.8825 20V12.3636H39.0558V20H37.8825ZM38.479 11.0909C38.2504 11.0909 38.0531 11.013 37.8874 10.8572C37.725 10.7015 37.6438 10.5142 37.6438 10.2955C37.6438 10.0767 37.725 9.88944 37.8874 9.73366C38.0531 9.57789 38.2504 9.5 38.479 9.5C38.7077 9.5 38.9033 9.57789 39.0657 9.73366C39.2314 9.88944 39.3143 10.0767 39.3143 10.2955C39.3143 10.5142 39.2314 10.7015 39.0657 10.8572C38.9033 11.013 38.7077 11.0909 38.479 11.0909ZM42.378 9.81818V20H41.2047V9.81818H42.378ZM47.7287 20.1591C46.9929 20.1591 46.3582 19.9967 45.8246 19.6719C45.2943 19.3438 44.8849 18.8864 44.5966 18.2997C44.3116 17.7098 44.169 17.0237 44.169 16.2415C44.169 15.4593 44.3116 14.7699 44.5966 14.1733C44.8849 13.5734 45.286 13.1061 45.7997 12.7713C46.3168 12.4332 46.92 12.2642 47.6094 12.2642C48.0071 12.2642 48.3999 12.3305 48.7876 12.4631C49.1754 12.5956 49.5284 12.8111 49.8466 13.1094C50.1648 13.4044 50.4183 13.7955 50.6072 14.2827C50.7962 14.7699 50.8906 15.3698 50.8906 16.0824V16.5795H45.0043V15.5653H49.6974C49.6974 15.1345 49.6113 14.75 49.4389 14.4119C49.2699 14.0739 49.0279 13.8071 48.7131 13.6115C48.4015 13.416 48.0336 13.3182 47.6094 13.3182C47.142 13.3182 46.7377 13.4342 46.3963 13.6662C46.0582 13.8949 45.7981 14.1932 45.6158 14.5611C45.4335 14.929 45.3423 15.3234 45.3423 15.7443V16.4205C45.3423 16.9972 45.4418 17.486 45.6406 17.8871C45.8428 18.2848 46.1229 18.5881 46.4808 18.7969C46.8388 19.0024 47.2547 19.1051 47.7287 19.1051C48.0369 19.1051 48.3153 19.062 48.5639 18.9759C48.8158 18.8864 49.0329 18.7538 49.2152 18.5781C49.3975 18.3991 49.5384 18.1771 49.6378 17.9119L50.7713 18.2301C50.652 18.6146 50.4515 18.9527 50.1697 19.2443C49.888 19.5327 49.54 19.758 49.1257 19.9205C48.7114 20.0795 48.2457 20.1591 47.7287 20.1591ZM55.5589 20.1591C54.9226 20.1591 54.3608 19.9983 53.8736 19.6768C53.3864 19.352 53.0052 18.8946 52.7301 18.3047C52.455 17.7114 52.3175 17.0104 52.3175 16.2017C52.3175 15.3996 52.455 14.7036 52.7301 14.1136C53.0052 13.5237 53.388 13.0679 53.8786 12.7464C54.3691 12.425 54.9358 12.2642 55.5788 12.2642C56.076 12.2642 56.4688 12.3471 56.7571 12.5128C57.0488 12.6752 57.2708 12.8608 57.4233 13.0696C57.5791 13.2751 57.7 13.4441 57.7862 13.5767H57.8857V9.81818H59.0589V20H57.9254V18.8267H57.7862C57.7 18.9659 57.5774 19.1416 57.4183 19.3537C57.2592 19.5625 57.0322 19.7498 56.7372 19.9155C56.4422 20.0779 56.0495 20.1591 55.5589 20.1591ZM55.718 19.1051C56.1887 19.1051 56.5864 18.9825 56.9112 18.7372C57.236 18.4886 57.483 18.1456 57.652 17.7081C57.821 17.2673 57.9055 16.7585 57.9055 16.1818C57.9055 15.6117 57.8227 15.1129 57.657 14.6854C57.4912 14.2545 57.246 13.9197 56.9212 13.6811C56.5964 13.4392 56.1953 13.3182 55.718 13.3182C55.2209 13.3182 54.8066 13.4458 54.4751 13.701C54.147 13.9529 53.9001 14.2959 53.7344 14.7301C53.572 15.161 53.4908 15.6449 53.4908 16.1818C53.4908 16.7254 53.5736 17.2192 53.7393 17.6634C53.9084 18.1042 54.157 18.4555 54.4851 18.7173C54.8165 18.9759 55.2275 19.1051 55.718 19.1051Z" fill="#12192C"/>
</svg>
