<svg width="328" height="160" viewBox="0 0 328 160" fill="none" xmlns="http://www.w3.org/2000/svg">
<path opacity="0.7" d="M164 160C254.575 160 328 140.301 328 116C328 91.6995 254.575 72 164 72C73.4253 72 0 91.6995 0 116C0 140.301 73.4253 160 164 160Z" fill="url(#paint0_linear_2939_2308)"/>
<path d="M256.873 68.306C256.839 68.062 256.757 67.8272 256.631 67.6153C256.506 67.4033 256.34 67.2185 256.142 67.0714C255.944 66.9244 255.719 66.8182 255.48 66.7589C255.241 66.6995 254.993 66.6884 254.749 66.726C253.733 66.885 253.056 67.864 253.21 68.906C253.487 70.676 253.825 76.204 251.947 78.447C251.547 78.921 251.055 79.205 250.439 79.332L250.624 68.78C250.655 67.232 249.454 66 247.946 66C246.437 66 245.237 67.264 245.267 68.812L245.76 88.841C245.114 88.746 244.621 88.43 244.19 87.956C242.312 85.713 242.651 80.184 242.928 78.416C243.082 77.373 242.405 76.394 241.389 76.236C241.146 76.1984 240.897 76.2095 240.658 76.2689C240.419 76.3282 240.194 76.4344 239.996 76.5814C239.799 76.7285 239.632 76.9133 239.507 77.1253C239.381 77.3372 239.299 77.572 239.265 77.816C239.142 78.7 238.064 86.44 241.358 90.42C242.497 91.779 244.036 92.568 245.822 92.663L246.037 101.382H250.07L250.378 83.186C252.132 83.059 253.641 82.27 254.749 80.943C258.073 76.931 256.996 69.159 256.873 68.306ZM82.3492 93.485C82.3273 93.3293 82.2747 93.1796 82.1946 93.0443C82.1145 92.9091 82.0084 92.7911 81.8824 92.6971C81.7564 92.6031 81.6131 92.5349 81.4606 92.4967C81.3081 92.4584 81.1496 92.4507 80.9942 92.474C80.3482 92.569 79.9172 93.201 80.0092 93.864C80.1632 95.001 80.3792 98.508 79.2092 99.929C79.0954 100.082 78.9524 100.211 78.7885 100.309C78.6246 100.407 78.443 100.471 78.2542 100.498L78.3782 93.769C78.3874 93.5404 78.3505 93.3123 78.2696 93.0984C78.1886 92.8844 78.0653 92.689 77.907 92.5239C77.7488 92.3587 77.5588 92.2272 77.3485 92.1371C77.1382 92.0471 76.9119 92.0005 76.6832 92C75.7292 92 74.9592 92.821 74.9902 93.8L75.2982 106.564C74.9085 106.509 74.5553 106.305 74.3132 105.995C73.1132 104.573 73.3282 101.035 73.5132 99.929C73.6052 99.266 73.1742 98.634 72.5282 98.539C71.8812 98.445 71.2962 98.887 71.1732 99.55C71.0812 100.119 70.4032 105.047 72.5282 107.575C73.2662 108.459 74.2212 108.933 75.3902 109.028L75.5142 114.588H78.0992L78.2842 102.994C79.3922 102.899 80.3772 102.425 81.0852 101.572C83.1172 98.982 82.4412 94.053 82.3492 93.485Z" fill="#C7C7C7"/>
<path d="M209.703 128H87L175.01 28.582H214.012L209.703 128Z" fill="url(#paint1_linear_2939_2308)"/>
<path d="M176.979 64.1858C176.873 64.0306 176.71 63.9235 176.526 63.8879C176.341 63.8523 176.15 63.8911 175.994 63.9958C175.841 64.1098 175.738 64.2774 175.703 64.465C175.669 64.6525 175.707 64.8461 175.809 65.0068C176.178 65.5768 177.163 67.4398 176.886 68.5138C176.825 68.7348 176.702 68.9238 176.517 69.0828L174.916 65.4178C174.67 64.8808 174.085 64.6598 173.562 64.9128C173.31 65.038 173.118 65.2569 173.026 65.5226C172.933 65.7883 172.949 66.0796 173.069 66.3338L176.394 73.1578C176.148 73.2208 175.932 73.2208 175.717 73.0948C174.732 72.6208 173.962 70.6618 173.777 69.9988C173.654 69.6188 173.285 69.3988 172.915 69.4928C172.737 69.5516 172.588 69.6753 172.496 69.8392C172.405 70.0032 172.379 70.1955 172.423 70.3778C172.515 70.6938 173.377 73.5678 175.132 74.3898C175.747 74.6738 176.394 74.6738 177.04 74.4218L178.487 77.3918L179.872 76.7278L177.102 70.3778C177.388 70.2146 177.638 69.9967 177.839 69.7365C178.039 69.4764 178.187 69.1791 178.272 68.8618C178.764 66.9658 177.163 64.4698 176.979 64.1858Z" fill="#CAD8FF"/>
<path d="M150.598 81.4668C150.598 81.9408 150.198 82.3508 149.736 82.3508C149.275 82.3508 148.875 81.9408 148.875 81.4668C148.875 80.9928 149.275 80.5818 149.736 80.5818C150.198 80.5818 150.598 80.9918 150.598 81.4668ZM190.586 65.7968C190.586 66.1768 190.278 66.4608 189.94 66.4608C189.767 66.4574 189.601 66.3858 189.48 66.2615C189.359 66.1372 189.292 65.9703 189.293 65.7968C189.293 65.4178 189.601 65.1338 189.94 65.1338C190.309 65.1338 190.586 65.4498 190.586 65.7968Z" fill="#C7C7C7"/>
<path d="M206.803 56.8941C207.025 56.9881 207.247 57.0201 207.491 56.9881C208.357 56.8621 208.979 55.7301 208.868 54.5351L208.002 43.9681C207.913 42.7411 207.114 41.8611 206.27 42.0181C205.404 42.1441 204.783 43.2761 204.894 44.4711L205.76 55.0381C205.804 55.9181 206.226 56.6421 206.803 56.8941Z" fill="#CAD8FF"/>
<path d="M211.57 55.85C211.817 54.8143 211.646 53.7234 211.095 52.8124C210.544 51.9015 209.658 51.2434 208.626 50.98C208.119 50.8503 207.591 50.823 207.074 50.8996C206.556 50.9762 206.059 51.1552 205.611 51.4261C205.163 51.697 204.773 52.0544 204.465 52.4774C204.157 52.9004 203.936 53.3806 203.815 53.89C203.569 54.9256 203.74 56.0165 204.291 56.9275C204.841 57.8385 205.728 58.4966 206.759 58.76C207.267 58.8896 207.794 58.9169 208.312 58.8403C208.83 58.7637 209.327 58.5848 209.775 58.3139C210.223 58.043 210.612 57.6856 210.921 57.2625C211.229 56.8395 211.45 56.3593 211.57 55.85ZM167.715 46.93C167.824 47.145 167.974 47.312 168.181 47.445C168.926 47.905 170.13 47.437 170.813 46.45L176.942 37.8C177.662 36.802 177.616 35.614 176.868 35.192C176.124 34.732 174.92 35.2 174.237 36.187L168.108 44.837C167.576 45.541 167.434 46.367 167.715 46.93Z" fill="#CAD8FF"/>
<path d="M172.039 49.1949C172.893 48.5594 173.463 47.6139 173.626 46.5622C173.79 45.5104 173.534 44.4365 172.913 43.5719C172.608 43.1467 172.221 42.7865 171.775 42.5123C171.33 42.2382 170.834 42.0556 170.317 41.9752C169.799 41.8947 169.271 41.9181 168.764 42.0439C168.256 42.1697 167.778 42.3954 167.358 42.7079C166.504 43.343 165.933 44.2884 165.77 45.3403C165.606 46.3921 165.862 47.4661 166.483 48.3309C166.788 48.7561 167.175 49.1163 167.621 49.3904C168.067 49.6646 168.563 49.8472 169.08 49.9276C169.597 50.0081 170.125 49.9847 170.633 49.8589C171.141 49.7331 171.619 49.5073 172.039 49.1949ZM189.51 36.7959C179.813 33.4469 170.978 29.8459 163.713 26.4019C168.054 33.5419 176.242 40.0179 186.678 43.6199C197.021 47.1899 207.272 47.1899 214.906 44.2519C207.364 42.4819 198.652 39.9549 189.51 36.7959Z" fill="#CAD8FF"/>
<path d="M239.331 45.1132C240.781 40.6992 220.551 29.7132 194.146 20.5772C167.742 11.4402 145.161 7.61221 143.71 12.0272C142.26 16.4412 162.49 27.4272 188.894 36.5632C215.299 45.6992 237.88 49.5272 239.331 45.1132Z" fill="#CAD8FF"/>
<path d="M189.477 34.7738C164.881 26.2758 145.672 16.1658 144.318 11.2378C144.043 11.4311 143.838 11.7083 143.733 12.0278C142.286 16.4508 162.511 27.4448 188.923 36.5748C215.335 45.7048 237.899 49.5268 239.346 45.1048C239.438 44.7878 239.438 44.4718 239.346 44.0928C235.313 47.1888 214.042 43.2728 189.477 34.7738Z" fill="white"/>
<path d="M193.326 25.044C205.578 29.277 217.491 30.983 217.491 30.983C219.707 18.346 212.658 5.58298 200.437 1.38198C188.185 -2.85203 175.01 2.96198 169.346 14.461C169.346 14.461 181.074 20.811 193.326 25.044Z" fill="#7B9FFF"/>
<defs>
<linearGradient id="paint0_linear_2939_2308" x1="163.982" y1="-30.5" x2="163.982" y2="137.384" gradientUnits="userSpaceOnUse">
<stop stop-color="#EAEAEA"/>
<stop offset="0.476" stop-color="#EAEAEA"/>
<stop offset="1" stop-color="white"/>
</linearGradient>
<linearGradient id="paint1_linear_2939_2308" x1="150.499" y1="-59" x2="150.499" y2="102.45" gradientUnits="userSpaceOnUse">
<stop stop-color="#3769F1"/>
<stop offset="0.476" stop-color="#7B9FFF"/>
<stop offset="1" stop-color="white" stop-opacity="0"/>
</linearGradient>
</defs>
</svg>
