<svg width="81" height="29" viewBox="0 0 81 29" fill="none" xmlns="http://www.w3.org/2000/svg">
<path d="M0 14.5C0 6.49187 6.49187 0 14.5 0H66.5C74.5081 0 81 6.49187 81 14.5C81 22.5081 74.5081 29 66.5 29H14.5C6.49187 29 0 22.5081 0 14.5Z" fill="#55C790"/>
<path d="M16.2076 20V9.81818H22.3127V10.9119H17.4405V14.3523H21.8553V15.446H17.4405V20H16.2076ZM28.5993 16.8778V12.3636H29.7725V20H28.5993V18.7074H28.5197C28.3407 19.0952 28.0623 19.425 27.6845 19.6967C27.3066 19.9652 26.8294 20.0994 26.2527 20.0994C25.7754 20.0994 25.3511 19.995 24.9799 19.7862C24.6087 19.5741 24.3171 19.2559 24.1049 18.8317C23.8928 18.4041 23.7868 17.8655 23.7868 17.2159V12.3636H24.96V17.1364C24.96 17.6932 25.1158 18.1373 25.4274 18.4688C25.7422 18.8002 26.1433 18.9659 26.6305 18.9659C26.9222 18.9659 27.2188 18.8913 27.5204 18.7422C27.8253 18.593 28.0806 18.3643 28.286 18.0561C28.4949 17.7479 28.5993 17.3551 28.5993 16.8778ZM33.0948 9.81818V20H31.9215V9.81818H33.0948ZM38.6444 12.3636V13.358H34.5279V12.3636H38.6444ZM35.7608 20V11.3097C35.7608 10.8722 35.8636 10.5076 36.0691 10.2159C36.2746 9.92424 36.5414 9.70549 36.8695 9.55966C37.1976 9.41383 37.544 9.34091 37.9086 9.34091C38.1969 9.34091 38.4322 9.36411 38.6145 9.41051C38.7968 9.45691 38.9327 9.5 39.0222 9.53977L38.6841 10.554C38.6245 10.5341 38.5416 10.5092 38.4355 10.4794C38.3328 10.4496 38.1969 10.4347 38.0279 10.4347C37.6401 10.4347 37.36 10.5324 37.1877 10.728C37.0186 10.9235 36.9341 11.2102 36.9341 11.5881V20H35.7608ZM40.2887 20V12.3636H41.462V20H40.2887ZM40.8853 11.0909C40.6566 11.0909 40.4594 11.013 40.2937 10.8572C40.1313 10.7015 40.0501 10.5142 40.0501 10.2955C40.0501 10.0767 40.1313 9.88944 40.2937 9.73366C40.4594 9.57789 40.6566 9.5 40.8853 9.5C41.114 9.5 41.3095 9.57789 41.4719 9.73366C41.6377 9.88944 41.7205 10.0767 41.7205 10.2955C41.7205 10.5142 41.6377 10.7015 41.4719 10.8572C41.3095 11.013 41.114 11.0909 40.8853 11.0909ZM44.7843 9.81818V20H43.611V9.81818H44.7843ZM48.1065 9.81818V20H46.9332V9.81818H48.1065ZM53.4572 20.1591C52.7214 20.1591 52.0867 19.9967 51.5531 19.6719C51.0228 19.3438 50.6135 18.8864 50.3251 18.2997C50.0401 17.7098 49.8975 17.0237 49.8975 16.2415C49.8975 15.4593 50.0401 14.7699 50.3251 14.1733C50.6135 13.5734 51.0145 13.1061 51.5282 12.7713C52.0453 12.4332 52.6485 12.2642 53.3379 12.2642C53.7356 12.2642 54.1284 12.3305 54.5162 12.4631C54.9039 12.5956 55.2569 12.8111 55.5751 13.1094C55.8933 13.4044 56.1468 13.7955 56.3358 14.2827C56.5247 14.7699 56.6191 15.3698 56.6191 16.0824V16.5795H50.7328V15.5653H55.426C55.426 15.1345 55.3398 14.75 55.1674 14.4119C54.9984 14.0739 54.7565 13.8071 54.4416 13.6115C54.13 13.416 53.7621 13.3182 53.3379 13.3182C52.8706 13.3182 52.4662 13.4342 52.1248 13.6662C51.7868 13.8949 51.5266 14.1932 51.3443 14.5611C51.162 14.929 51.0708 15.3234 51.0708 15.7443V16.4205C51.0708 16.9972 51.1703 17.486 51.3691 17.8871C51.5713 18.2848 51.8514 18.5881 52.2093 18.7969C52.5673 19.0024 52.9833 19.1051 53.4572 19.1051C53.7654 19.1051 54.0439 19.062 54.2924 18.9759C54.5443 18.8864 54.7614 18.7538 54.9437 18.5781C55.126 18.3991 55.2669 18.1771 55.3663 17.9119L56.4998 18.2301C56.3805 18.6146 56.18 18.9527 55.8983 19.2443C55.6165 19.5327 55.2685 19.758 54.8542 19.9205C54.4399 20.0795 53.9743 20.1591 53.4572 20.1591ZM61.2875 20.1591C60.6511 20.1591 60.0893 19.9983 59.6021 19.6768C59.1149 19.352 58.7337 18.8946 58.4586 18.3047C58.1835 17.7114 58.046 17.0104 58.046 16.2017C58.046 15.3996 58.1835 14.7036 58.4586 14.1136C58.7337 13.5237 59.1165 13.0679 59.6071 12.7464C60.0976 12.425 60.6644 12.2642 61.3074 12.2642C61.8045 12.2642 62.1973 12.3471 62.4856 12.5128C62.7773 12.6752 62.9993 12.8608 63.1518 13.0696C63.3076 13.2751 63.4286 13.4441 63.5147 13.5767H63.6142V9.81818H64.7875V20H63.6539V18.8267H63.5147C63.4286 18.9659 63.3059 19.1416 63.1468 19.3537C62.9877 19.5625 62.7607 19.7498 62.4657 19.9155C62.1708 20.0779 61.778 20.1591 61.2875 20.1591ZM61.4466 19.1051C61.9172 19.1051 62.3149 18.9825 62.6397 18.7372C62.9645 18.4886 63.2115 18.1456 63.3805 17.7081C63.5495 17.2673 63.6341 16.7585 63.6341 16.1818C63.6341 15.6117 63.5512 15.1129 63.3855 14.6854C63.2198 14.2545 62.9745 13.9197 62.6497 13.6811C62.3249 13.4392 61.9238 13.3182 61.4466 13.3182C60.9494 13.3182 60.5351 13.4458 60.2037 13.701C59.8755 13.9529 59.6286 14.2959 59.4629 14.7301C59.3005 15.161 59.2193 15.6449 59.2193 16.1818C59.2193 16.7254 59.3021 17.2192 59.4679 17.6634C59.6369 18.1042 59.8855 18.4555 60.2136 18.7173C60.545 18.9759 60.956 19.1051 61.4466 19.1051Z" fill="#12192C"/>
</svg>
