<svg width="24" height="25" viewBox="0 0 24 25" fill="none" xmlns="http://www.w3.org/2000/svg">
<path d="M20.0001 8.62452L14.0001 3.36452C13.4501 2.87256 12.738 2.60059 12.0001 2.60059C11.2622 2.60059 10.5501 2.87256 10.0001 3.36452L4.00009 8.62452C3.68246 8.90859 3.42899 9.25707 3.25657 9.64676C3.08414 10.0364 2.99671 10.4584 3.00009 10.8845V19.6245C3.00009 20.4202 3.31617 21.1832 3.87877 21.7458C4.44138 22.3084 5.20445 22.6245 6.00009 22.6245H18.0001C18.7957 22.6245 19.5588 22.3084 20.1214 21.7458C20.684 21.1832 21.0001 20.4202 21.0001 19.6245V10.8745C21.0021 10.4501 20.9139 10.0301 20.7416 9.6422C20.5692 9.25434 20.3165 8.90747 20.0001 8.62452ZM14.0001 20.6245H10.0001V15.6245C10.0001 15.3593 10.1055 15.1049 10.293 14.9174C10.4805 14.7299 10.7349 14.6245 11.0001 14.6245H13.0001C13.2653 14.6245 13.5197 14.7299 13.7072 14.9174C13.8947 15.1049 14.0001 15.3593 14.0001 15.6245V20.6245ZM19.0001 19.6245C19.0001 19.8897 18.8947 20.1441 18.7072 20.3316C18.5197 20.5192 18.2653 20.6245 18.0001 20.6245H16.0001V15.6245C16.0001 14.8289 15.684 14.0658 15.1214 13.5032C14.5588 12.9406 13.7957 12.6245 13.0001 12.6245H11.0001C10.2044 12.6245 9.44138 12.9406 8.87877 13.5032C8.31616 14.0658 8.00009 14.8289 8.00009 15.6245V20.6245H6.00009C5.73488 20.6245 5.48052 20.5192 5.29299 20.3316C5.10545 20.1441 5.00009 19.8897 5.00009 19.6245V10.8745C5.00027 10.7325 5.03069 10.5922 5.08931 10.4629C5.14794 10.3336 5.23343 10.2182 5.3401 10.1245L11.3401 4.87452C11.5226 4.7142 11.7572 4.62578 12.0001 4.62578C12.243 4.62578 12.4776 4.7142 12.6601 4.87452L18.6601 10.1245C18.7668 10.2182 18.8523 10.3336 18.9109 10.4629C18.9695 10.5922 18.9999 10.7325 19.0001 10.8745V19.6245Z" fill="#7B9FFF"/>
</svg>
