<svg width="328" height="160" viewBox="0 0 328 160" fill="none" xmlns="http://www.w3.org/2000/svg">
<path d="M164 159.042C254.575 159.042 328 139.343 328 115.042C328 90.7415 254.575 71.042 164 71.042C73.4253 71.042 0 90.7415 0 115.042C0 139.343 73.4253 159.042 164 159.042Z" fill="url(#paint0_linear_2429_11375)" fill-opacity="0.7"/>
<mask id="mask0_2429_11375" style="mask-type:luminance" maskUnits="userSpaceOnUse" x="134" y="29" width="62" height="67">
<path d="M142.453 29.2659L191.418 40.8849C194.261 41.5589 196.16 44.2269 195.855 47.1179L191.263 90.5989C190.975 93.3239 188.521 95.2999 185.781 95.0139C185.751 95.0108 185.721 95.0075 185.691 95.0039L138.738 89.2419C136.204 88.9309 134.315 86.7659 134.362 84.2269L135.284 34.7889C135.344 31.5929 137.997 29.0509 141.21 29.1089C141.629 29.1179 142.046 29.1689 142.453 29.2659Z" fill="white"/>
</mask>
<g mask="url(#mask0_2429_11375)">
<path d="M142.453 29.2659L191.418 40.8849C194.261 41.5589 196.16 44.2269 195.855 47.1179L191.263 90.5989C190.975 93.3239 188.521 95.2999 185.781 95.0139C185.751 95.0108 185.721 95.0075 185.691 95.0039L138.738 89.2419C136.204 88.9309 134.315 86.7659 134.362 84.2269L135.284 34.7889C135.344 31.5929 137.997 29.0509 141.21 29.1089C141.629 29.1179 142.046 29.1689 142.453 29.2659Z" fill="#B8AEF1"/>
<path fill-rule="evenodd" clip-rule="evenodd" d="M134.278 82.1519L163.372 61.6099L173.585 69.4039L159.513 93.3199L135.049 91.0169C134.651 88.4109 134.393 86.4429 134.278 85.1119C134.162 83.7819 134.162 82.7949 134.278 82.1519Z" fill="#A99DEE"/>
</g>
<path d="M162.008 34.0818C162.009 34.0985 162.008 34.1153 162.005 34.1318L160.692 43.6048C161.384 43.8048 161.889 44.4398 161.889 45.1918C161.889 46.0998 161.153 46.8368 160.243 46.8458L159.445 52.5988C159.776 52.7075 160.063 52.9176 160.268 53.1992C160.472 53.4809 160.582 53.8198 160.583 54.1678C160.583 55.0548 159.88 55.7778 158.999 55.8198L157.552 66.2548C157.539 66.3304 157.496 66.3978 157.434 66.443C157.372 66.4882 157.295 66.5076 157.219 66.4971C157.143 66.4866 157.074 66.4471 157.026 66.3868C156.979 66.3265 156.957 66.2502 156.964 66.1738L158.41 55.7418C158.076 55.6354 157.784 55.4256 157.577 55.1427C157.37 54.8598 157.258 54.5184 157.257 54.1678C157.257 53.2758 157.968 52.5478 158.857 52.5158L159.657 46.7458C159.337 46.6305 159.061 46.4194 158.865 46.1414C158.67 45.8633 158.564 45.5317 158.564 45.1918C158.564 44.3208 159.241 43.6068 160.101 43.5438L161.417 34.0498C161.419 34.0373 161.422 34.025 161.425 34.0128L144.67 40.1728L155.298 32.2598L167.53 35.1538L172.518 45.9008L162.008 34.0818ZM186.842 56.7448L187.407 56.9278L175.443 93.4098L174.878 93.2268L186.842 56.7448ZM148.767 72.1188L134.457 82.0388L135.288 34.0908L137.759 40.7868L148.767 72.1188Z" fill="#E7E4FA"/>
<mask id="mask1_2429_11375" style="mask-type:luminance" maskUnits="userSpaceOnUse" x="157" y="0" width="27" height="36">
<path d="M170.629 28.1339L170.624 35.4239L158.083 34.7439L157.957 19.5999C157.911 19.2182 157.889 18.8342 157.889 18.4499V9.68988C157.889 4.33988 162.249 0.00488281 167.627 0.00488281H173.607C178.985 0.00488281 183.345 4.34088 183.345 9.68888V18.4489C183.345 23.7989 178.985 28.1339 173.607 28.1339H170.629Z" fill="white"/>
</mask>
<g mask="url(#mask1_2429_11375)">
<path d="M168.81 27.9769L167.533 35.1549L155.301 32.3219L157.82 17.3859C157.842 17.0059 157.886 16.6239 157.954 16.2409L159.484 7.61295C160.418 2.34595 165.468 -1.17105 170.765 -0.242051L176.654 0.790949C181.951 1.71895 185.487 6.74195 184.554 12.0089L183.024 20.6369C182.09 25.9039 177.039 29.4209 171.743 28.4919L168.81 27.9779V27.9769Z" fill="#E7E4FA"/>
</g>
<mask id="mask2_2429_11375" style="mask-type:luminance" maskUnits="userSpaceOnUse" x="157" y="0" width="27" height="36">
<path d="M170.584 28.129L170.579 35.419L158.038 34.739L157.912 19.595C157.866 19.2134 157.844 18.8293 157.844 18.445V9.684C157.844 4.335 162.203 0 167.582 0H173.562C178.94 0 183.3 4.335 183.3 9.684V18.444C183.3 23.793 178.94 28.129 173.562 28.129H170.584Z" fill="white"/>
</mask>
<g mask="url(#mask2_2429_11375)">
<path d="M168.763 27.9752L167.485 35.1532L155.254 32.3182L157.773 17.3822C157.795 17.0022 157.839 16.6212 157.907 16.2372L159.437 7.61024C160.371 2.34324 165.421 -1.17376 170.718 -0.24576L176.607 0.787241C181.904 1.71624 185.44 6.73924 184.506 12.0062L182.977 20.6342C182.043 25.9012 176.992 29.4182 171.696 28.4892L168.763 27.9752Z" fill="#E7E4FA"/>
<path fill-rule="evenodd" clip-rule="evenodd" d="M159.458 9.47024L182.793 1.02524L169.174 -1.92676L158.389 0.131242L159.458 9.46924V9.47024Z" fill="#A99DEE"/>
</g>
<path d="M154.442 3.37012L153.745 3.22212C150.281 2.49012 146.876 4.68912 146.139 8.13512L145.991 8.82812C145.255 12.2731 147.466 15.6591 150.931 16.3921L151.628 16.5391C155.092 17.2711 158.497 15.0721 159.234 11.6271L159.382 10.9341C160.118 7.48912 157.907 4.10212 154.442 3.37012Z" fill="#A99DEE"/>
<path fill-rule="evenodd" clip-rule="evenodd" d="M171.807 22.3418L173.849 23.9658C174.262 24.2948 174.751 24.5168 175.272 24.6118L176.687 24.8698C177.139 24.9528 177.606 24.8698 178.001 24.6358L179.585 23.6988L178.391 22.5118C178.282 22.4043 178.15 22.3244 178.004 22.2788C177.858 22.2332 177.704 22.2232 177.554 22.2498L177.032 22.3408L176.037 21.7568C175.836 21.6385 175.598 21.598 175.37 21.6428L171.807 22.3418Z" fill="#A99DEE"/>
<path d="M184.335 12.717C182.663 12.134 180.852 12.343 178.783 13.137" stroke="#E7E4FA" stroke-width="3" stroke-linecap="round" stroke-linejoin="round"/>
<path fill-rule="evenodd" clip-rule="evenodd" d="M175.079 20.61L178.93 21.352C179.029 21.3711 179.132 21.3648 179.227 21.3335C179.323 21.3022 179.409 21.2471 179.478 21.1732C179.546 21.0994 179.595 21.0092 179.619 20.9114C179.643 20.8135 179.642 20.7112 179.615 20.614C179.167 19.016 178.923 17.772 178.885 16.882C178.839 15.827 178.641 15.394 178.291 15.582L178.456 12.752H178.159C176.763 16.155 175.991 18.104 175.843 18.598C175.751 18.905 174.499 19.048 174.372 19.657C174.348 19.769 174.384 19.93 174.48 20.14C174.591 20.384 174.815 20.559 175.079 20.61Z" fill="#A99DEE"/>
<path d="M189.616 33.894L187.588 33.502L182.148 61.332L184.177 61.725L189.616 33.894Z" fill="#E7E4FA"/>
<path d="M187.068 42.6802L186.64 42.5972C185.993 42.4705 185.321 42.6057 184.773 42.9733C184.225 43.3409 183.845 43.9109 183.716 44.5582L180.582 60.5942C180.52 60.9147 180.522 61.2442 180.588 61.564C180.653 61.8838 180.781 62.1875 180.965 62.4577C181.148 62.7278 181.382 62.9592 181.655 63.1384C181.928 63.3177 182.234 63.4413 182.554 63.5022L182.982 63.5842C183.63 63.7109 184.302 63.5757 184.85 63.2081C185.398 62.8405 185.778 62.2705 185.906 61.6232L189.04 45.5872C189.102 45.2668 189.1 44.9373 189.035 44.6177C188.969 44.298 188.841 43.9944 188.658 43.7244C188.475 43.4543 188.24 43.2231 187.967 43.0439C187.694 42.8647 187.389 42.7411 187.068 42.6802Z" fill="#A99DEE"/>
<path fill-rule="evenodd" clip-rule="evenodd" d="M189.102 29.9271L189.531 30.0101C189.852 30.071 190.157 30.1946 190.43 30.3739C190.703 30.5531 190.938 30.7845 191.121 31.0547C191.304 31.3248 191.432 31.6285 191.498 31.9483C191.563 32.2681 191.565 32.5976 191.503 32.9181L191.076 35.0991C191.014 35.4132 190.848 35.6972 190.605 35.9052C190.361 36.1131 190.055 36.2329 189.735 36.2451C189.131 36.2691 188.617 36.2411 188.195 36.1591C187.752 36.0731 187.214 35.8921 186.582 35.6151C186.287 35.4868 186.044 35.2616 185.894 34.9767C185.744 34.6918 185.695 34.3643 185.756 34.0481L186.178 31.8881C186.307 31.2411 186.687 30.6716 187.235 30.3042C187.783 29.9369 188.455 29.8006 189.102 29.9271Z" fill="#A99DEE"/>
<path fill-rule="evenodd" clip-rule="evenodd" d="M178.651 27.6422C176.14 23.6452 175.967 18.9572 177.328 14.8422C178.379 11.6662 180.24 8.8302 183.294 6.9322C185.685 5.4462 188.229 4.8792 190.807 4.8032C192.353 4.7572 193.929 4.7462 195.438 5.2162C196.96 5.6912 198.938 6.6002 200.308 7.5782C201.956 8.7552 202.941 10.1032 204.045 11.8612C205.415 14.0412 206.125 16.4702 206.304 18.8572C206.399 20.1222 206.178 21.8012 205.948 22.9912C205.602 24.7872 205.05 26.0452 204.048 27.6552C202.898 29.5052 201.387 31.3372 199.403 32.5702C197.905 33.5012 196.333 34.1812 194.726 34.5052C192.345 34.9852 189.893 34.7662 187.541 34.0922C185.975 33.6432 184.192 32.8762 182.791 31.9662C181.073 30.8502 179.802 29.4742 178.651 27.6422ZM180.401 26.5922C184.201 32.6402 192.175 34.5042 198.21 30.7542C204.244 27.0042 206.055 19.0602 202.255 13.0122C198.454 6.9632 190.481 5.1002 184.447 8.8502C178.412 12.6002 176.6 20.5432 180.401 26.5922Z" fill="#A99DEE"/>
<mask id="mask3_2429_11375" style="mask-type:luminance" maskUnits="userSpaceOnUse" x="178" y="6" width="27" height="27">
<path d="M191.263 32.685C194.156 32.685 196.863 31.635 199.024 30.027C199.551 29.635 200.087 29.27 200.553 28.819C202.255 27.173 203.426 25.115 204.035 22.824C204.296 21.844 204.435 20.811 204.435 19.728C204.435 13.824 200.288 9.12 194.798 7.557C193.634 7.225 192.536 6.771 191.263 6.771C187.085 6.771 183.516 8.875 181.103 11.858C179.313 14.071 178.09 16.681 178.09 19.728C178.09 22.213 178.92 24.546 180.154 26.518C182.472 30.224 186.514 32.685 191.263 32.685Z" fill="white"/>
</mask>
<g mask="url(#mask3_2429_11375)">
<path d="M180.212 26.5927C181.746 29.0327 184.075 30.7597 186.591 31.7307C187.205 31.9667 187.801 32.2257 188.432 32.3807C190.738 32.9427 193.114 32.8397 195.39 32.1397C196.363 31.8397 197.318 31.4097 198.242 30.8367C203.277 27.7077 205.091 21.7167 203.514 16.2587C203.18 15.1017 202.986 13.9347 202.311 12.8607C200.097 9.33774 196.412 7.44274 192.588 6.98874C189.753 6.65174 186.88 7.00274 184.281 8.61774C182.162 9.93474 180.613 11.8707 179.585 13.9557C177.652 17.8757 177.696 22.5887 180.212 26.5927Z" fill="white"/>
<path opacity="0.653" fill-rule="evenodd" clip-rule="evenodd" d="M193.665 17.6438C193.143 17.42 192.599 17.2518 192.043 17.1418C191.387 17.0028 190.756 16.9768 190.108 16.9688C189.352 16.9608 188.628 17.0988 187.882 17.2688C187.248 17.4128 186.296 17.7558 185.026 18.2978C185.882 19.2768 186.555 19.9548 187.043 20.3318C187.789 20.9068 188.494 21.4518 189.365 21.7868C189.724 21.9248 190.159 22.0768 190.575 22.1928L183.739 32.2528L178.311 24.7538L197.846 4.38184L200.853 7.06484L193.665 17.6448V17.6438ZM195.726 18.8118C195.446 18.6063 195.156 18.416 194.857 18.2418L201.813 8.17184L202.564 8.39984L195.726 18.8118ZM193.329 22.4618L185.591 34.2448L184.928 32.6148L191.959 22.4368C192.148 22.4528 192.337 22.4638 192.532 22.4738C192.798 22.4878 193.064 22.4828 193.329 22.4618Z" fill="#E7E4FA"/>
<path d="M193.687 22.7518C193.287 22.7968 192.909 22.8068 192.523 22.7818C192.057 22.7538 191.716 22.7228 191.397 22.6738L190.819 25.5718C190.811 25.6096 190.796 25.6455 190.774 25.6774C190.752 25.7093 190.724 25.7365 190.692 25.7575C190.659 25.7784 190.623 25.7927 190.585 25.7994C190.547 25.8062 190.508 25.8053 190.47 25.7968C190.393 25.7813 190.325 25.7361 190.281 25.671C190.237 25.6059 190.22 25.5261 190.234 25.4488L190.81 22.5588C190.278 22.4226 189.755 22.253 189.245 22.0508C188.999 21.9552 188.759 21.8433 188.528 21.7158L186.808 23.1558C186.747 23.2053 186.669 23.2292 186.59 23.2223C186.512 23.2154 186.439 23.1783 186.388 23.1188C186.362 23.0902 186.342 23.0567 186.33 23.0203C186.317 22.9839 186.312 22.9453 186.314 22.9068C186.317 22.8684 186.327 22.8308 186.345 22.7965C186.362 22.7621 186.386 22.7316 186.416 22.7068L187.989 21.3908C187.811 21.2734 187.635 21.1517 187.463 21.0258C187.286 20.8958 187.152 20.7958 186.825 20.5448C186.312 20.1518 185.618 19.4628 184.738 18.4708C184.706 18.4367 184.684 18.3955 184.672 18.3507C184.66 18.306 184.659 18.259 184.669 18.2138C184.679 18.1686 184.7 18.1266 184.73 18.0912C184.76 18.0558 184.798 18.0282 184.841 18.0108C186.125 17.4808 187.092 17.1468 187.748 17.0048C188.707 16.7988 189.358 16.7098 190.05 16.7248C190.889 16.7418 191.454 16.7908 192.052 16.9208C192.643 17.0419 193.219 17.2246 193.772 17.4658C194.508 17.7798 195.255 18.2028 195.886 18.6658C196.44 19.0738 197.23 19.8288 198.266 20.9378C198.298 20.9712 198.322 21.0119 198.335 21.0565C198.348 21.101 198.35 21.1481 198.341 21.1937C198.332 21.2392 198.312 21.2818 198.282 21.3179C198.253 21.354 198.215 21.3824 198.173 21.4008C197.22 21.8128 196.504 22.0888 196.02 22.2308C195.362 22.4248 194.803 22.5678 194.295 22.6608L195.063 24.2918C195.133 24.4398 195.068 24.6118 194.919 24.6778C194.846 24.709 194.765 24.7109 194.691 24.6831C194.617 24.6553 194.557 24.6 194.523 24.5288L193.687 22.7528V22.7518ZM195.839 21.6718C196.23 21.5558 196.801 21.3408 197.546 21.0268C196.673 20.1068 196.001 19.4748 195.535 19.1318C194.916 18.6817 194.248 18.3027 193.544 18.0018C193.027 17.7757 192.487 17.6048 191.934 17.4918C191.383 17.3718 190.852 17.3258 190.049 17.3088C189.414 17.2958 188.804 17.3788 187.887 17.5758C187.336 17.6948 186.525 17.9688 185.458 18.3978C186.185 19.1978 186.762 19.7628 187.186 20.0858C187.509 20.3338 187.641 20.4328 187.813 20.5588C188.431 21.0098 188.921 21.3008 189.455 21.5078C190.036 21.7328 190.619 21.9218 191.074 22.0208C191.509 22.1158 191.895 22.1588 192.549 22.1988C193.493 22.2578 194.415 22.0918 195.839 21.6718ZM191.324 20.9598C190.953 20.8798 190.537 20.4698 190.365 20.1498C190.219 19.8778 190.245 19.5858 190.314 19.2548C190.383 18.9198 190.551 18.6768 190.796 18.4888C191.08 18.2718 191.461 18.1388 191.829 18.2188C192.248 18.3108 192.796 18.5068 192.953 18.8888C193.053 19.1338 193.16 19.6158 193.102 19.8978C193.045 20.1718 192.818 20.4478 192.636 20.6278C192.341 20.9208 191.75 21.0528 191.324 20.9598Z" fill="#A99DEE"/>
</g>
<path fill-rule="evenodd" clip-rule="evenodd" d="M166.662 12.7771C166.955 14.2341 168.157 15.3011 170.269 15.9771C172.38 16.6541 173.975 16.4501 175.052 15.3661C174.274 13.6281 173.157 12.5321 171.701 12.0781C170.245 11.6251 168.566 11.8581 166.662 12.7771Z" fill="white"/>
<path fill-rule="evenodd" clip-rule="evenodd" d="M172.144 15.3121C172.488 15.3351 172.828 15.1721 173.03 14.8911C173.154 14.7191 173.213 14.4981 173.23 14.2621C173.247 14.0211 173.224 13.8021 173.12 13.6121C173.038 13.4621 172.92 13.3344 172.778 13.2405C172.635 13.1465 172.471 13.089 172.301 13.0731C172.003 13.0531 171.704 13.1231 171.504 13.3391C171.33 13.5261 171.235 13.8351 171.215 14.1221C171.195 14.4061 171.249 14.7291 171.391 14.9381C171.56 15.1831 171.843 15.2901 172.144 15.3111V15.3121Z" fill="#A99DEE"/>
<path fill-rule="evenodd" clip-rule="evenodd" d="M166.611 12.7849C168.962 13.0179 170.783 13.3309 172.076 13.7249C173.368 14.1169 174.383 14.6669 175.12 15.3729C174.771 13.5929 173.616 12.4209 171.654 11.8579C169.692 11.2959 168.011 11.6049 166.611 12.7849Z" fill="#A99DEE"/>
<path fill-rule="evenodd" clip-rule="evenodd" d="M175.764 14.7889L170.322 9.93889L170.679 8.10889L177.329 14.3089C177.289 14.4688 177.209 14.6157 177.095 14.7353C176.982 14.8549 176.84 14.9432 176.682 14.9915C176.525 15.0398 176.357 15.0465 176.196 15.011C176.035 14.9755 175.886 14.899 175.764 14.7889ZM155.301 32.2619L152.768 24.5299C152.235 22.9035 152.129 21.1676 152.46 19.4884C152.79 17.8092 153.546 16.2431 154.656 14.9399L159.457 9.29089L155.301 32.2619Z" fill="#A99DEE"/>
<mask id="mask4_2429_11375" style="mask-type:luminance" maskUnits="userSpaceOnUse" x="163" y="43" width="31" height="27">
<path d="M163.492 61.9209L181.984 45.0419C182.514 44.5595 183.161 44.2244 183.86 44.0699L183.503 45.6049L189.969 43.4059C190.372 43.2683 190.813 43.2904 191.2 43.4677C191.587 43.645 191.892 43.9639 192.051 44.3589C192.115 44.5189 192.193 44.6899 192.284 44.8709C192.926 46.1449 192.926 47.2959 192.284 48.3249C193.222 48.6189 193.765 49.3299 193.913 50.4559C194.061 51.5829 193.789 52.4649 193.099 53.1019C193.38 53.6238 193.549 54.199 193.594 54.7901C193.64 55.3813 193.56 55.9754 193.362 56.534C193.163 57.0927 192.849 57.6034 192.441 58.0334C192.033 58.4633 191.539 58.8028 190.991 59.0299L190.582 59.2009L175.927 64.0509L173.114 69.0479L163.492 61.9199V61.9209Z" fill="white"/>
</mask>
<g mask="url(#mask4_2429_11375)">
<path d="M163.492 61.9209L181.984 45.0419C182.514 44.5595 183.161 44.2244 183.86 44.0699L183.503 45.6049L189.969 43.4059C190.372 43.2683 190.813 43.2904 191.2 43.4677C191.587 43.645 191.892 43.9639 192.051 44.3589C192.115 44.5189 192.193 44.6899 192.284 44.8709C192.926 46.1449 192.926 47.2959 192.284 48.3249C193.222 48.6189 193.765 49.3299 193.913 50.4559C194.061 51.5829 193.789 52.4649 193.099 53.1019C193.38 53.6238 193.549 54.199 193.594 54.7901C193.64 55.3813 193.56 55.9754 193.362 56.534C193.163 57.0927 192.849 57.6034 192.441 58.0334C192.033 58.4633 191.539 58.8028 190.991 59.0299L190.582 59.2009L175.927 64.0509L173.114 69.0479L163.492 61.9199V61.9209Z" fill="#E7E4FA"/>
<path fill-rule="evenodd" clip-rule="evenodd" d="M183.979 45.43L179.525 47.32C180.427 46.011 181.219 45.086 181.901 44.544C182.587 43.9999 183.408 43.6528 184.276 43.54L183.979 45.43Z" fill="#A99DEE"/>
<path d="M192.958 53.0827C192.996 53.0545 193.043 53.0424 193.09 53.0492C193.136 53.0559 193.179 53.0809 193.207 53.1187C193.221 53.1373 193.231 53.1585 193.237 53.1811C193.243 53.2036 193.244 53.2271 193.241 53.2502C193.237 53.2733 193.229 53.2955 193.217 53.3155C193.205 53.3355 193.19 53.3529 193.171 53.3667C192.657 53.7487 192.043 54.0337 191.329 54.2227C191.283 54.2349 191.235 54.2287 191.194 54.2052C191.153 54.1818 191.123 54.1431 191.111 54.0977C191.105 54.0752 191.103 54.0516 191.106 54.0285C191.109 54.0053 191.117 53.983 191.128 53.9628C191.14 53.9426 191.156 53.9249 191.174 53.9108C191.193 53.8967 191.214 53.8865 191.237 53.8807C191.909 53.7027 192.482 53.4357 192.958 53.0827ZM192.071 48.2307C192.109 48.2034 192.157 48.1923 192.203 48.1998C192.25 48.2073 192.292 48.2327 192.32 48.2707C192.377 48.3507 192.359 48.4617 192.279 48.5187C191.746 48.8987 191.117 49.1707 190.395 49.3357C190.372 49.3409 190.349 49.3417 190.326 49.3379C190.303 49.334 190.281 49.3257 190.261 49.3134C190.241 49.3011 190.224 49.2851 190.211 49.2662C190.197 49.2472 190.188 49.2258 190.182 49.2032C190.177 49.1805 190.176 49.1571 190.18 49.1341C190.184 49.1112 190.192 49.0892 190.205 49.0695C190.217 49.0498 190.233 49.0326 190.252 49.0191C190.271 49.0056 190.292 48.9959 190.315 48.9907C190.993 48.8357 191.578 48.5827 192.071 48.2307Z" fill="#A99DEE"/>
</g>
<path fill-rule="evenodd" clip-rule="evenodd" d="M158.388 17.676C160.814 17.676 162.782 15.799 162.782 13.484C162.782 11.168 160.814 9.29102 158.388 9.29102C155.961 9.29102 153.994 11.168 153.994 13.484C153.994 15.294 155.195 16.835 156.879 17.423C157.349 17.587 157.858 17.676 158.388 17.676Z" fill="#E7E4FA"/>
<mask id="mask5_2429_11375" style="mask-type:luminance" maskUnits="userSpaceOnUse" x="153" y="16" width="8" height="10">
<path d="M155.84 16.9049C156.186 17.1149 156.561 17.3069 156.974 17.4599C156.654 17.5179 156.346 17.6649 156.09 17.9009C155.442 18.4977 154.969 19.26 154.722 20.1056C154.475 20.9512 154.463 21.8481 154.688 22.6999L154.764 22.9859C154.846 23.2876 154.999 23.565 155.212 23.7943C155.424 24.0236 155.689 24.198 155.983 24.3025C156.278 24.407 156.593 24.4385 156.903 24.3944C157.212 24.3502 157.506 24.2317 157.76 24.0489L157.835 23.9959C158.577 23.4619 159.116 22.6917 159.364 21.8113C159.611 20.931 159.553 19.9927 159.198 19.1499L158.928 18.5099C158.836 18.2915 158.701 18.0939 158.531 17.9289C158.361 17.764 158.159 17.635 157.938 17.5499C158.044 17.0559 158.109 16.7449 158.136 16.6179C158.507 16.7373 158.849 16.9356 159.137 17.1991C159.425 17.4627 159.652 17.7853 159.804 18.1449L160.074 18.7849C160.511 19.8241 160.583 20.981 160.278 22.0663C159.973 23.1517 159.308 24.1014 158.393 24.7599L158.319 24.8139C157.701 25.2599 156.932 25.4436 156.179 25.3248C155.426 25.2061 154.751 24.7945 154.3 24.1799C154.09 23.8933 153.936 23.5701 153.845 23.2269L153.77 22.9399C153.501 21.9228 153.515 20.8517 153.81 19.8419C154.105 18.8321 154.669 17.9218 155.443 17.2089C155.568 17.0939 155.701 16.9919 155.84 16.9049Z" fill="white"/>
</mask>
<g mask="url(#mask5_2429_11375)">
<path d="M155.84 16.9049C156.186 17.1149 156.561 17.3069 156.974 17.4599C156.654 17.5179 156.346 17.6649 156.09 17.9009C155.442 18.4977 154.969 19.26 154.722 20.1056C154.475 20.9512 154.463 21.8481 154.688 22.6999L154.764 22.9859C154.846 23.2876 154.999 23.565 155.212 23.7943C155.424 24.0236 155.689 24.198 155.983 24.3025C156.278 24.407 156.593 24.4385 156.903 24.3944C157.212 24.3502 157.506 24.2317 157.76 24.0489L157.835 23.9959C158.577 23.4619 159.116 22.6917 159.364 21.8113C159.611 20.931 159.553 19.9927 159.198 19.1499L158.928 18.5099C158.836 18.2915 158.701 18.0939 158.531 17.9289C158.361 17.764 158.159 17.635 157.938 17.5499C158.044 17.0559 158.109 16.7449 158.136 16.6179C158.507 16.7373 158.849 16.9356 159.137 17.1991C159.425 17.4627 159.652 17.7853 159.804 18.1449L160.074 18.7849C160.511 19.8241 160.583 20.981 160.278 22.0663C159.973 23.1517 159.308 24.1014 158.393 24.7599L158.319 24.8139C157.701 25.2599 156.932 25.4436 156.179 25.3248C155.426 25.2061 154.751 24.7945 154.3 24.1799C154.09 23.8933 153.936 23.5701 153.845 23.2269L153.77 22.9399C153.501 21.9228 153.515 20.8517 153.81 19.8419C154.105 18.8321 154.669 17.9218 155.443 17.2089C155.568 17.0939 155.701 16.9919 155.84 16.9049Z" fill="#B8AEF1"/>
<path fill-rule="evenodd" clip-rule="evenodd" d="M154.052 14.842L158.386 14.428L156.189 28.068L152.33 27.124L154.052 14.841V14.842Z" fill="#A99DEE"/>
</g>
<path fill-rule="evenodd" clip-rule="evenodd" d="M129.705 6.57397V15.481L137.901 13.598L130.319 17.975L137.901 20.622L129.705 19.655L130.319 27.595L127.143 20.317L122.738 26.171L125.606 19.095L117 16.194L125.606 16.55L122.738 10.29L127.143 14.921L129.705 6.57397ZM209.602 59.104L209.191 47.402L200.413 51.352L207.464 44.482L198.805 38.134L208.998 41.918L207.827 31.514L212.323 40.932L217.825 33.042L214.393 42.467L224.999 42.988L214.511 45.811L218.558 53.906L212.572 48.021L209.602 59.104ZM171.192 17.903C170.936 17.845 170.871 17.631 170.916 17.44C170.96 17.25 171.096 17.154 171.352 17.213C171.608 17.272 171.672 17.486 171.628 17.676C171.584 17.867 171.447 17.962 171.192 17.903ZM173.686 17.785C173.43 17.727 173.365 17.631 173.41 17.44C173.454 17.25 173.59 17.036 173.846 17.095C174.102 17.154 174.166 17.368 174.122 17.558C174.078 17.749 173.941 17.844 173.686 17.785ZM172.617 19.085C172.361 19.025 172.297 18.812 172.341 18.621C172.385 18.431 172.522 18.335 172.777 18.394C173.033 18.453 173.098 18.608 173.053 18.798C173.009 18.989 172.873 19.143 172.617 19.085ZM170.242 19.439C169.986 19.38 169.862 19.284 169.906 19.094C169.951 18.903 170.146 18.69 170.402 18.748C170.658 18.808 170.663 18.962 170.619 19.153C170.575 19.343 170.497 19.498 170.242 19.439ZM168.579 17.431C168.324 17.372 168.199 17.218 168.244 17.027C168.288 16.837 168.484 16.682 168.739 16.741C168.995 16.799 169.06 17.072 169.016 17.263C168.971 17.453 168.835 17.49 168.579 17.431Z" fill="#A99DEE"/>
<path d="M98.2978 32.2451C99.8038 34.3551 98.5578 37.0821 97.0778 38.6261C95.2348 40.5041 93.3908 40.2211 92.5348 41.8941C91.4958 43.9271 93.7028 45.3941 92.5608 47.5041C91.8598 48.7901 90.8988 48.4811 89.4968 50.1281C87.8098 52.1361 89.4708 52.7021 88.2508 54.1681C84.3828 58.8781 82.8508 55.6091 80.4878 56.8451C77.4508 58.4401 75.3998 59.8291 73.9198 59.4951C68.0528 58.2341 69.8698 54.4001 67.0138 52.9331C63.1718 50.9521 61.2768 42.7951 63.9248 39.9381C65.3008 38.4461 66.6768 38.2661 66.8068 37.0051C66.9878 35.2041 64.2368 34.6631 63.9508 32.5021C63.6388 30.0321 66.9368 28.8481 66.4428 26.7631C65.9758 24.7311 62.5748 24.8081 62.3668 23.3671C62.0298 21.1801 69.2728 17.2431 76.7498 17.4741C80.3328 17.6031 86.1478 18.7351 87.1348 21.6941C87.7048 23.3931 86.2258 24.4991 87.0568 26.7121C87.6538 28.3071 88.9778 29.2081 90.7168 30.3661C92.3788 31.4731 95.6498 28.5141 98.2978 32.2451Z" fill="#EAEAEA"/>
<path d="M80.4113 30.906C81.5803 30.855 82.1773 38.626 81.5013 39.656C80.8273 40.685 79.5293 41.431 79.4513 42.537C79.3733 43.644 79.8663 63.38 80.2813 63.097C80.6973 62.814 84.1503 57.642 83.4493 56.433C82.7483 55.223 81.9693 53.37 82.1513 51.801C82.3073 50.231 82.3073 47.992 82.7483 48.044C83.1893 48.095 82.8263 51.955 83.1383 52.701C83.4483 53.448 83.5013 54.04 83.9423 54.04C84.3843 54.065 84.3843 49.974 85.0843 50.025C85.7593 50.103 85.2923 56.124 85.0583 57.23C84.8253 58.337 84.0203 62.197 83.2933 63.612C82.5663 65.027 80.3333 66.52 80.2563 67.009C80.2043 67.498 80.5673 78.974 80.5673 78.974L74.7003 79.077C74.7003 79.077 76.8553 56.407 76.3873 55.661C75.8943 54.914 72.8573 48.791 72.2073 48.147C71.5583 47.529 71.1693 43.695 71.5073 43.644C71.8443 43.592 72.0523 47.298 72.7533 47.374C73.4803 47.426 73.8693 40.17 74.3883 40.247C74.9083 40.299 73.8953 47.787 74.1553 48.25C74.4403 48.713 76.0753 51.466 76.6213 51.415C77.1663 51.363 76.3093 31.035 76.7773 30.803C77.2443 30.572 77.5823 30.752 77.8673 32.888C78.1533 35.023 78.6973 39.655 79.0353 39.655C79.3473 39.655 80.1523 38.96 80.1783 38.471C80.2043 38.06 79.8923 30.932 80.4113 30.906Z" fill="#C7C7C7"/>
<path d="M246.532 52.4521C245.612 53.7241 246.365 55.3821 247.285 56.3221C248.4 57.4821 249.544 57.2891 250.045 58.3121C250.659 59.5281 249.348 60.4401 250.045 61.7381C250.464 62.5401 251.049 62.3461 251.914 63.3411C252.945 64.5571 251.941 64.9171 252.666 65.8011C255.008 68.6751 255.956 66.6851 257.378 67.4311C259.219 68.3991 260.473 69.2551 261.366 69.0611C264.934 68.2881 263.819 65.9671 265.576 65.0821C267.918 63.8661 269.061 58.9201 267.444 57.1791C266.607 56.2671 265.771 56.1561 265.687 55.3821C265.576 54.2771 267.249 53.9721 267.416 52.6461C267.611 51.1541 265.604 50.4361 265.91 49.1641C266.189 47.9211 268.252 47.9761 268.392 47.0921C268.587 45.7651 264.21 43.3611 259.637 43.4991C257.462 43.5821 253.921 44.2731 253.335 46.0691C253.001 47.1191 253.893 47.7821 253.391 49.1091C253.029 50.0761 252.22 50.6291 251.161 51.3191C250.129 51.9831 248.122 50.1861 246.532 52.4521Z" fill="#EAEAEA"/>
<path d="M257.408 51.652C256.683 51.624 256.321 56.349 256.739 56.957C257.157 57.565 257.938 58.035 257.994 58.727C258.05 59.417 257.743 71.411 257.492 71.217C257.241 71.052 255.15 67.901 255.568 67.155C255.986 66.436 256.46 65.303 256.377 64.336C256.265 63.369 256.265 62.015 256.014 62.042C255.735 62.07 255.958 64.419 255.791 64.889C255.596 65.331 255.568 65.69 255.289 65.718C255.01 65.718 255.01 63.231 254.592 63.286C254.174 63.341 254.453 66.989 254.592 67.68C254.731 68.37 255.205 70.692 255.652 71.549C256.098 72.406 257.464 73.318 257.492 73.622C257.52 73.926 257.297 80.918 257.297 80.918L260.866 80.973C260.866 80.973 259.555 67.183 259.834 66.74C260.141 66.27 261.981 62.567 262.372 62.18C262.762 61.794 263.013 59.472 262.79 59.445C262.567 59.417 262.455 61.683 262.037 61.711C261.591 61.738 261.368 57.344 261.061 57.371C260.754 57.4 261.368 61.959 261.201 62.236C261.033 62.512 260.029 64.198 259.695 64.17C259.36 64.143 259.89 51.79 259.583 51.624C259.305 51.485 259.081 51.596 258.914 52.894C258.747 54.194 258.412 57.013 258.217 57.013C258.022 57.013 257.52 56.571 257.52 56.294C257.52 55.99 257.715 51.68 257.408 51.652Z" fill="#C7C7C7"/>
<defs>
<linearGradient id="paint0_linear_2429_11375" x1="163.982" y1="-31.458" x2="163.982" y2="136.426" gradientUnits="userSpaceOnUse">
<stop stop-color="#EAEAEA"/>
<stop offset="0.476" stop-color="#EAEAEA"/>
<stop offset="1" stop-color="white"/>
</linearGradient>
</defs>
</svg>
