<svg width="24" height="25" viewBox="0 0 24 25" fill="none" xmlns="http://www.w3.org/2000/svg">
<path d="M21 16.625H7C6.73478 16.625 6.48043 16.5196 6.29289 16.3321C6.10536 16.1446 6 15.8902 6 15.625C6 15.3598 6.10536 15.1054 6.29289 14.9179C6.48043 14.7304 6.73478 14.625 7 14.625H17.44C18.1087 14.625 18.7582 14.4017 19.2854 13.9904C19.8126 13.5792 20.1873 13.0036 20.35 12.355L22 5.865C22.0375 5.71741 22.0407 5.56321 22.0095 5.41417C21.9783 5.26513 21.9135 5.12518 21.82 5.005C21.7227 4.88173 21.5978 4.7831 21.4554 4.71708C21.3129 4.65106 21.1569 4.61952 21 4.625H6.76C6.55369 4.04145 6.17193 3.536 5.66707 3.17794C5.1622 2.81988 4.55894 2.62674 3.94 2.625H3C2.73478 2.625 2.48043 2.73036 2.29289 2.91789C2.10536 3.10543 2 3.35978 2 3.625C2 3.89022 2.10536 4.14457 2.29289 4.33211C2.48043 4.51964 2.73478 4.625 3 4.625H3.94C4.16843 4.61834 4.39226 4.69013 4.57421 4.82841C4.75615 4.96669 4.88525 5.16312 4.94 5.385L5 5.865L6.73 12.625C5.93435 12.6608 5.18551 13.0112 4.64822 13.5991C4.11093 14.1871 3.8292 14.9644 3.865 15.76C3.9008 16.5556 4.25121 17.3045 4.83914 17.8418C5.42707 18.3791 6.20435 18.6608 7 18.625H7.18C7.01554 19.0781 6.96269 19.5642 7.02593 20.0421C7.08917 20.52 7.26665 20.9756 7.54332 21.3704C7.81999 21.7651 8.18772 22.0874 8.61535 22.3099C9.04299 22.5324 9.51795 22.6485 10 22.6485C10.4821 22.6485 10.957 22.5324 11.3846 22.3099C11.8123 22.0874 12.18 21.7651 12.4567 21.3704C12.7334 20.9756 12.9108 20.52 12.9741 20.0421C13.0373 19.5642 12.9845 19.0781 12.82 18.625H15.18C15.0155 19.0781 14.9627 19.5642 15.0259 20.0421C15.0892 20.52 15.2666 20.9756 15.5433 21.3704C15.82 21.7651 16.1877 22.0874 16.6154 22.3099C17.043 22.5324 17.5179 22.6485 18 22.6485C18.4821 22.6485 18.957 22.5324 19.3846 22.3099C19.8123 22.0874 20.18 21.7651 20.4567 21.3704C20.7334 20.9756 20.9108 20.52 20.9741 20.0421C21.0373 19.5642 20.9845 19.0781 20.82 18.625H21C21.2652 18.625 21.5196 18.5196 21.7071 18.3321C21.8946 18.1446 22 17.8902 22 17.625C22 17.3598 21.8946 17.1054 21.7071 16.9179C21.5196 16.7304 21.2652 16.625 21 16.625ZM19.72 6.625L18.41 11.865C18.3552 12.0869 18.2262 12.2833 18.0442 12.4216C17.8623 12.5599 17.6384 12.6317 17.41 12.625H8.78L7.28 6.625H19.72ZM10 20.625C9.80222 20.625 9.60888 20.5664 9.44443 20.4565C9.27998 20.3466 9.15181 20.1904 9.07612 20.0077C9.00043 19.825 8.98063 19.6239 9.01921 19.4299C9.0578 19.2359 9.15304 19.0577 9.29289 18.9179C9.43275 18.778 9.61093 18.6828 9.80491 18.6442C9.99889 18.6056 10.2 18.6254 10.3827 18.7011C10.5654 18.7768 10.7216 18.905 10.8315 19.0694C10.9414 19.2339 11 19.4272 11 19.625C11 19.8902 10.8946 20.1446 10.7071 20.3321C10.5196 20.5196 10.2652 20.625 10 20.625ZM18 20.625C17.8022 20.625 17.6089 20.5664 17.4444 20.4565C17.28 20.3466 17.1518 20.1904 17.0761 20.0077C17.0004 19.825 16.9806 19.6239 17.0192 19.4299C17.0578 19.2359 17.153 19.0577 17.2929 18.9179C17.4327 18.778 17.6109 18.6828 17.8049 18.6442C17.9989 18.6056 18.2 18.6254 18.3827 18.7011C18.5654 18.7768 18.7216 18.905 18.8315 19.0694C18.9414 19.2339 19 19.4272 19 19.625C19 19.8902 18.8946 20.1446 18.7071 20.3321C18.5196 20.5196 18.2652 20.625 18 20.625Z" fill="#EEF3FF"/>
</svg>
