<svg width="24" height="25" viewBox="0 0 24 25" fill="none" xmlns="http://www.w3.org/2000/svg">
<path d="M10 13.625H3C2.73478 13.625 2.48043 13.7304 2.29289 13.9179C2.10536 14.1054 2 14.3598 2 14.625V21.625C2 21.8902 2.10536 22.1446 2.29289 22.3321C2.48043 22.5196 2.73478 22.625 3 22.625H10C10.2652 22.625 10.5196 22.5196 10.7071 22.3321C10.8946 22.1446 11 21.8902 11 21.625V14.625C11 14.3598 10.8946 14.1054 10.7071 13.9179C10.5196 13.7304 10.2652 13.625 10 13.625ZM9 20.625H4V15.625H9V20.625ZM21 2.625H14C13.7348 2.625 13.4804 2.73036 13.2929 2.91789C13.1054 3.10543 13 3.35978 13 3.625V10.625C13 10.8902 13.1054 11.1446 13.2929 11.3321C13.4804 11.5196 13.7348 11.625 14 11.625H21C21.2652 11.625 21.5196 11.5196 21.7071 11.3321C21.8946 11.1446 22 10.8902 22 10.625V3.625C22 3.35978 21.8946 3.10543 21.7071 2.91789C21.5196 2.73036 21.2652 2.625 21 2.625ZM20 9.625H15V4.625H20V9.625ZM21 13.625H14C13.7348 13.625 13.4804 13.7304 13.2929 13.9179C13.1054 14.1054 13 14.3598 13 14.625V21.625C13 21.8902 13.1054 22.1446 13.2929 22.3321C13.4804 22.5196 13.7348 22.625 14 22.625H21C21.2652 22.625 21.5196 22.5196 21.7071 22.3321C21.8946 22.1446 22 21.8902 22 21.625V14.625C22 14.3598 21.8946 14.1054 21.7071 13.9179C21.5196 13.7304 21.2652 13.625 21 13.625ZM20 20.625H15V15.625H20V20.625ZM10 2.625H3C2.73478 2.625 2.48043 2.73036 2.29289 2.91789C2.10536 3.10543 2 3.35978 2 3.625V10.625C2 10.8902 2.10536 11.1446 2.29289 11.3321C2.48043 11.5196 2.73478 11.625 3 11.625H10C10.2652 11.625 10.5196 11.5196 10.7071 11.3321C10.8946 11.1446 11 10.8902 11 10.625V3.625C11 3.35978 10.8946 3.10543 10.7071 2.91789C10.5196 2.73036 10.2652 2.625 10 2.625ZM9 9.625H4V4.625H9V9.625Z" fill="#EEF3FF"/>
</svg>
