<svg width="24" height="25" viewBox="0 0 24 25" fill="none" xmlns="http://www.w3.org/2000/svg">
<path d="M21.32 10.175L19.43 9.545L20.32 7.765C20.4102 7.57869 20.4404 7.36897 20.4064 7.16478C20.3723 6.96058 20.2758 6.77199 20.13 6.625L18 4.495C17.8522 4.34709 17.6618 4.24921 17.4555 4.21513C17.2493 4.18105 17.0375 4.21248 16.85 4.305L15.07 5.195L14.44 3.305C14.3735 3.108 14.2472 2.93663 14.0787 2.81475C13.9102 2.69287 13.7079 2.62655 13.5 2.625H10.5C10.2904 2.62446 10.0858 2.68982 9.91537 2.81185C9.7449 2.93387 9.61709 3.10638 9.55 3.305L8.92 5.195L7.14 4.305C6.95369 4.21478 6.74397 4.18461 6.53978 4.21864C6.33558 4.25267 6.14699 4.34923 6 4.495L3.87 6.625C3.72209 6.77277 3.62421 6.96318 3.59013 7.16946C3.55605 7.37574 3.58748 7.58751 3.68 7.775L4.57 9.555L2.68 10.185C2.483 10.2515 2.31163 10.3778 2.18975 10.5463C2.06787 10.7148 2.00155 10.9171 2 11.125V14.125C1.99946 14.3346 2.06482 14.5392 2.18685 14.7096C2.30887 14.8801 2.48138 15.0079 2.68 15.075L4.57 15.705L3.68 17.485C3.58978 17.6713 3.55961 17.881 3.59364 18.0852C3.62767 18.2894 3.72423 18.478 3.87 18.625L6 20.755C6.14777 20.9029 6.33818 21.0008 6.54446 21.0349C6.75074 21.069 6.96251 21.0375 7.15 20.945L8.93 20.055L9.56 21.945C9.62709 22.1436 9.7549 22.3161 9.92537 22.4382C10.0958 22.5602 10.3004 22.6255 10.51 22.625H13.51C13.7196 22.6255 13.9242 22.5602 14.0946 22.4382C14.2651 22.3161 14.3929 22.1436 14.46 21.945L15.09 20.055L16.87 20.945C17.0551 21.0329 17.2628 21.0619 17.4649 21.0279C17.667 20.9939 17.8538 20.8987 18 20.755L20.13 18.625C20.2779 18.4772 20.3758 18.2868 20.4099 18.0805C20.444 17.8743 20.4125 17.6625 20.32 17.475L19.43 15.695L21.32 15.065C21.517 14.9985 21.6884 14.8722 21.8103 14.7037C21.9321 14.5352 21.9985 14.3329 22 14.125V11.125C22.0005 10.9154 21.9352 10.7108 21.8132 10.5404C21.6911 10.3699 21.5186 10.2421 21.32 10.175ZM20 13.405L18.8 13.805C18.5241 13.8945 18.2709 14.043 18.0581 14.2401C17.8452 14.4372 17.6778 14.6783 17.5675 14.9466C17.4571 15.2149 17.4064 15.504 17.419 15.7938C17.4315 16.0836 17.5069 16.3672 17.64 16.625L18.21 17.765L17.11 18.865L16 18.265C15.7436 18.1372 15.4627 18.0661 15.1763 18.0563C14.89 18.0465 14.6049 18.0984 14.3403 18.2084C14.0758 18.3184 13.8379 18.4839 13.6429 18.6938C13.4479 18.9037 13.3003 19.1531 13.21 19.425L12.81 20.625H11.22L10.82 19.425C10.7305 19.1491 10.582 18.8959 10.3849 18.6831C10.1878 18.4702 9.94671 18.3028 9.67842 18.1925C9.41014 18.0821 9.12105 18.0314 8.83123 18.044C8.5414 18.0565 8.25777 18.1319 8 18.265L6.86 18.835L5.76 17.735L6.36 16.625C6.4931 16.3672 6.56852 16.0836 6.58105 15.7938C6.59358 15.504 6.5429 15.2149 6.43254 14.9466C6.32218 14.6783 6.15478 14.4372 5.94195 14.2401C5.72912 14.043 5.47595 13.8945 5.2 13.805L4 13.405V11.845L5.2 11.445C5.47595 11.3555 5.72912 11.207 5.94195 11.0099C6.15478 10.8128 6.32218 10.5717 6.43254 10.3034C6.5429 10.0351 6.59358 9.74605 6.58105 9.45623C6.56852 9.1664 6.4931 8.88277 6.36 8.625L5.79 7.515L6.89 6.415L8 6.985C8.25777 7.1181 8.5414 7.19352 8.83123 7.20605C9.12105 7.21858 9.41014 7.1679 9.67842 7.05754C9.94671 6.94718 10.1878 6.77978 10.3849 6.56695C10.582 6.35412 10.7305 6.10095 10.82 5.825L11.22 4.625H12.78L13.18 5.825C13.2695 6.10095 13.418 6.35412 13.6151 6.56695C13.8122 6.77978 14.0533 6.94718 14.3216 7.05754C14.5899 7.1679 14.879 7.21858 15.1688 7.20605C15.4586 7.19352 15.7422 7.1181 16 6.985L17.14 6.415L18.24 7.515L17.64 8.625C17.5122 8.88145 17.4411 9.16235 17.4313 9.44869C17.4215 9.73503 17.4734 10.0201 17.5834 10.2847C17.6934 10.5492 17.8589 10.7871 18.0688 10.9821C18.2787 11.1771 18.5281 11.3247 18.8 11.415L20 11.815V13.405ZM12 8.625C11.2089 8.625 10.4355 8.8596 9.77772 9.29913C9.11993 9.73865 8.60724 10.3634 8.30448 11.0943C8.00173 11.8252 7.92252 12.6294 8.07686 13.4054C8.2312 14.1813 8.61217 14.894 9.17158 15.4534C9.73099 16.0128 10.4437 16.3938 11.2196 16.5481C11.9956 16.7025 12.7998 16.6233 13.5307 16.3205C14.2616 16.0178 14.8864 15.5051 15.3259 14.8473C15.7654 14.1895 16 13.4161 16 12.625C16 11.5641 15.5786 10.5467 14.8284 9.79658C14.0783 9.04643 13.0609 8.625 12 8.625ZM12 14.625C11.6044 14.625 11.2178 14.5077 10.8889 14.2879C10.56 14.0682 10.3036 13.7558 10.1522 13.3904C10.0009 13.0249 9.96126 12.6228 10.0384 12.2348C10.1156 11.8469 10.3061 11.4905 10.5858 11.2108C10.8655 10.9311 11.2219 10.7406 11.6098 10.6634C11.9978 10.5863 12.3999 10.6259 12.7654 10.7772C13.1308 10.9286 13.4432 11.185 13.6629 11.5139C13.8827 11.8428 14 12.2294 14 12.625C14 13.1554 13.7893 13.6641 13.4142 14.0392C13.0391 14.4143 12.5304 14.625 12 14.625Z" fill="#EEF3FF"/>
</svg>
