<svg width="81" height="29" viewBox="0 0 81 29" fill="none" xmlns="http://www.w3.org/2000/svg">
<path d="M0 14.5C0 6.49187 6.49187 0 14.5 0H66.5C74.5081 0 81 6.49187 81 14.5C81 22.5081 74.5081 29 66.5 29H14.5C6.49187 29 0 22.5081 0 14.5Z" fill="#55C790"/>
<path d="M19.5609 12.3636C19.5012 11.8598 19.2593 11.4688 18.835 11.1903C18.4108 10.9119 17.8904 10.7727 17.274 10.7727C16.8232 10.7727 16.4288 10.8456 16.0907 10.9915C15.756 11.1373 15.4941 11.3378 15.3052 11.593C15.1196 11.8482 15.0268 12.1383 15.0268 12.4631C15.0268 12.7348 15.0914 12.9685 15.2207 13.1641C15.3533 13.3563 15.5223 13.517 15.7278 13.6463C15.9333 13.7723 16.1487 13.8767 16.3741 13.9595C16.5995 14.0391 16.8066 14.1037 16.9956 14.1534L18.0297 14.4318C18.2948 14.5014 18.5898 14.5975 18.9146 14.7202C19.2427 14.8428 19.5559 15.0102 19.8542 15.2223C20.1558 15.4311 20.4044 15.6996 20.6 16.0277C20.7955 16.3558 20.8933 16.7585 20.8933 17.2358C20.8933 17.786 20.7491 18.2831 20.4608 18.7273C20.1757 19.1714 19.7581 19.5244 19.2079 19.7862C18.661 20.0481 17.9965 20.179 17.2143 20.179C16.4851 20.179 15.8538 20.0613 15.3201 19.826C14.7898 19.5907 14.3722 19.2625 14.0673 18.8416C13.7657 18.4207 13.595 17.9318 13.5552 17.375H14.8279C14.8611 17.7595 14.9904 18.0777 15.2157 18.3295C15.4444 18.5781 15.7328 18.7637 16.0808 18.8864C16.4321 19.0057 16.81 19.0653 17.2143 19.0653C17.685 19.0653 18.1075 18.9891 18.4821 18.8366C18.8566 18.6809 19.1532 18.4654 19.372 18.1903C19.5907 17.9119 19.7001 17.5871 19.7001 17.2159C19.7001 16.8778 19.6056 16.6027 19.4167 16.3906C19.2278 16.1785 18.9792 16.0062 18.671 15.8736C18.3627 15.741 18.0297 15.625 17.6717 15.5256L16.4189 15.1676C15.6234 14.9389 14.9937 14.6125 14.5297 14.1882C14.0656 13.764 13.8336 13.2088 13.8336 12.5227C13.8336 11.9527 13.9877 11.4555 14.296 11.0312C14.6075 10.6037 15.0252 10.2723 15.5488 10.0369C16.0758 9.7983 16.6641 9.67898 17.3137 9.67898C17.97 9.67898 18.5533 9.79664 19.0637 10.032C19.5742 10.264 19.9785 10.5821 20.2768 10.9865C20.5784 11.3909 20.7375 11.8499 20.7541 12.3636H19.5609ZM27.5739 16.8778V12.3636H28.7472V20H27.5739V18.7074H27.4943C27.3153 19.0952 27.0369 19.425 26.6591 19.6967C26.2813 19.9652 25.804 20.0994 25.2273 20.0994C24.75 20.0994 24.3258 19.995 23.9545 19.7862C23.5833 19.5741 23.2917 19.2559 23.0795 18.8317C22.8674 18.4041 22.7614 17.8655 22.7614 17.2159V12.3636H23.9347V17.1364C23.9347 17.6932 24.0904 18.1373 24.402 18.4688C24.7169 18.8002 25.1179 18.9659 25.6051 18.9659C25.8968 18.9659 26.1934 18.8913 26.495 18.7422C26.8 18.593 27.0552 18.3643 27.2607 18.0561C27.4695 17.7479 27.5739 17.3551 27.5739 16.8778ZM33.9984 20.1591C33.2825 20.1591 32.666 19.9901 32.149 19.652C31.6319 19.3139 31.2342 18.8482 30.9558 18.255C30.6774 17.6617 30.5382 16.9839 30.5382 16.2216C30.5382 15.446 30.6807 14.7616 30.9657 14.1683C31.2541 13.5717 31.6551 13.1061 32.1689 12.7713C32.6859 12.4332 33.2891 12.2642 33.9785 12.2642C34.5154 12.2642 34.9993 12.3636 35.4302 12.5625C35.8611 12.7614 36.2141 13.0398 36.4892 13.3977C36.7643 13.7557 36.935 14.1733 37.0012 14.6506H35.8279C35.7385 14.3026 35.5396 13.9943 35.2314 13.7259C34.9264 13.4541 34.5154 13.3182 33.9984 13.3182C33.541 13.3182 33.14 13.4375 32.7953 13.6761C32.4539 13.9115 32.1871 14.2446 31.9949 14.6754C31.8059 15.103 31.7115 15.6051 31.7115 16.1818C31.7115 16.7718 31.8043 17.2855 31.9899 17.723C32.1788 18.1605 32.444 18.5002 32.7853 18.7422C33.13 18.9841 33.5344 19.1051 33.9984 19.1051C34.3033 19.1051 34.5801 19.0521 34.8287 18.946C35.0772 18.84 35.2877 18.6875 35.46 18.4886C35.6324 18.2898 35.755 18.0511 35.8279 17.7727H37.0012C36.935 18.2235 36.7709 18.6295 36.5091 18.9908C36.2505 19.3487 35.9075 19.6338 35.4799 19.8459C35.0557 20.0547 34.5618 20.1591 33.9984 20.1591ZM41.8187 20.1591C41.1028 20.1591 40.4863 19.9901 39.9693 19.652C39.4522 19.3139 39.0545 18.8482 38.7761 18.255C38.4977 17.6617 38.3585 16.9839 38.3585 16.2216C38.3585 15.446 38.501 14.7616 38.786 14.1683C39.0744 13.5717 39.4754 13.1061 39.9892 12.7713C40.5062 12.4332 41.1094 12.2642 41.7988 12.2642C42.3358 12.2642 42.8197 12.3636 43.2505 12.5625C43.6814 12.7614 44.0344 13.0398 44.3095 13.3977C44.5846 13.7557 44.7553 14.1733 44.8216 14.6506H43.6483C43.5588 14.3026 43.3599 13.9943 43.0517 13.7259C42.7467 13.4541 42.3358 13.3182 41.8187 13.3182C41.3613 13.3182 40.9603 13.4375 40.6156 13.6761C40.2742 13.9115 40.0074 14.2446 39.8152 14.6754C39.6262 15.103 39.5318 15.6051 39.5318 16.1818C39.5318 16.7718 39.6246 17.2855 39.8102 17.723C39.9991 18.1605 40.2643 18.5002 40.6056 18.7422C40.9503 18.9841 41.3547 19.1051 41.8187 19.1051C42.1236 19.1051 42.4004 19.0521 42.649 18.946C42.8975 18.84 43.108 18.6875 43.2804 18.4886C43.4527 18.2898 43.5753 18.0511 43.6483 17.7727H44.8216C44.7553 18.2235 44.5912 18.6295 44.3294 18.9908C44.0708 19.3487 43.7278 19.6338 43.3002 19.8459C42.876 20.0547 42.3822 20.1591 41.8187 20.1591ZM49.7385 20.1591C49.0027 20.1591 48.368 19.9967 47.8343 19.6719C47.304 19.3438 46.8947 18.8864 46.6064 18.2997C46.3213 17.7098 46.1788 17.0237 46.1788 16.2415C46.1788 15.4593 46.3213 14.7699 46.6064 14.1733C46.8947 13.5734 47.2958 13.1061 47.8095 12.7713C48.3265 12.4332 48.9297 12.2642 49.6191 12.2642C50.0169 12.2642 50.4096 12.3305 50.7974 12.4631C51.1852 12.5956 51.5382 12.8111 51.8564 13.1094C52.1745 13.4044 52.4281 13.7955 52.617 14.2827C52.8059 14.7699 52.9004 15.3698 52.9004 16.0824V16.5795H47.014V15.5653H51.7072C51.7072 15.1345 51.621 14.75 51.4487 14.4119C51.2797 14.0739 51.0377 13.8071 50.7228 13.6115C50.4113 13.416 50.0434 13.3182 49.6191 13.3182C49.1518 13.3182 48.7475 13.4342 48.4061 13.6662C48.068 13.8949 47.8078 14.1932 47.6255 14.5611C47.4432 14.929 47.3521 15.3234 47.3521 15.7443V16.4205C47.3521 16.9972 47.4515 17.486 47.6504 17.8871C47.8526 18.2848 48.1326 18.5881 48.4906 18.7969C48.8485 19.0024 49.2645 19.1051 49.7385 19.1051C50.0467 19.1051 50.3251 19.062 50.5737 18.9759C50.8256 18.8864 51.0427 18.7538 51.225 18.5781C51.4073 18.3991 51.5481 18.1771 51.6475 17.9119L52.7811 18.2301C52.6618 18.6146 52.4612 18.9527 52.1795 19.2443C51.8978 19.5327 51.5498 19.758 51.1355 19.9205C50.7212 20.0795 50.2555 20.1591 49.7385 20.1591ZM60.0943 14.0739L59.0403 14.3722C58.974 14.1965 58.8762 14.0258 58.747 13.8601C58.621 13.6911 58.4487 13.5518 58.2299 13.4425C58.0112 13.3331 57.7311 13.2784 57.3897 13.2784C56.9224 13.2784 56.533 13.3861 56.2214 13.6016C55.9132 13.8137 55.7591 14.0838 55.7591 14.4119C55.7591 14.7036 55.8651 14.9339 56.0772 15.103C56.2894 15.272 56.6208 15.4129 57.0716 15.5256L58.2051 15.804C58.8878 15.9697 59.3966 16.2232 59.7314 16.5646C60.0661 16.9027 60.2335 17.3385 60.2335 17.8722C60.2335 18.3097 60.1075 18.7008 59.8556 19.0455C59.6071 19.3902 59.2591 19.6619 58.8116 19.8608C58.3642 20.0597 57.8438 20.1591 57.2505 20.1591C56.4717 20.1591 55.827 19.9901 55.3166 19.652C54.8062 19.3139 54.483 18.8201 54.3471 18.1705L55.4608 17.892C55.5668 18.303 55.7673 18.6113 56.0623 18.8168C56.3606 19.0223 56.7501 19.125 57.2306 19.125C57.7775 19.125 58.2117 19.009 58.5332 18.777C58.858 18.5417 59.0204 18.2599 59.0204 17.9318C59.0204 17.6667 58.9276 17.4446 58.742 17.2656C58.5564 17.0833 58.2714 16.9474 57.8869 16.858L56.6142 16.5597C55.9148 16.3939 55.4011 16.1371 55.073 15.7891C54.7482 15.4377 54.5858 14.9986 54.5858 14.4716C54.5858 14.0407 54.7067 13.6596 54.9487 13.3281C55.194 12.9967 55.527 12.7365 55.948 12.5476C56.3722 12.3587 56.8528 12.2642 57.3897 12.2642C58.1454 12.2642 58.7387 12.4299 59.1696 12.7614C59.6038 13.0928 59.912 13.5303 60.0943 14.0739ZM67.4087 14.0739L66.3548 14.3722C66.2885 14.1965 66.1907 14.0258 66.0614 13.8601C65.9355 13.6911 65.7631 13.5518 65.5444 13.4425C65.3256 13.3331 65.0456 13.2784 64.7042 13.2784C64.2369 13.2784 63.8474 13.3861 63.5359 13.6016C63.2276 13.8137 63.0735 14.0838 63.0735 14.4119C63.0735 14.7036 63.1796 14.9339 63.3917 15.103C63.6038 15.272 63.9353 15.4129 64.386 15.5256L65.5195 15.804C66.2023 15.9697 66.7111 16.2232 67.0458 16.5646C67.3806 16.9027 67.5479 17.3385 67.5479 17.8722C67.5479 18.3097 67.422 18.7008 67.1701 19.0455C66.9215 19.3902 66.5735 19.6619 66.1261 19.8608C65.6786 20.0597 65.1583 20.1591 64.565 20.1591C63.7861 20.1591 63.1415 19.9901 62.631 19.652C62.1206 19.3139 61.7975 18.8201 61.6616 18.1705L62.7752 17.892C62.8813 18.303 63.0818 18.6113 63.3768 18.8168C63.6751 19.0223 64.0645 19.125 64.5451 19.125C65.092 19.125 65.5262 19.009 65.8477 18.777C66.1725 18.5417 66.3349 18.2599 66.3349 17.9318C66.3349 17.6667 66.2421 17.4446 66.0565 17.2656C65.8709 17.0833 65.5858 16.9474 65.2013 16.858L63.9286 16.5597C63.2293 16.3939 62.7156 16.1371 62.3874 15.7891C62.0626 15.4377 61.9002 14.9986 61.9002 14.4716C61.9002 14.0407 62.0212 13.6596 62.2631 13.3281C62.5084 12.9967 62.8415 12.7365 63.2624 12.5476C63.6867 12.3587 64.1673 12.2642 64.7042 12.2642C65.4599 12.2642 66.0531 12.4299 66.484 12.7614C66.9182 13.0928 67.2264 13.5303 67.4087 14.0739Z" fill="#12192C"/>
</svg>
