<svg width="83" height="29" viewBox="0 0 83 29" fill="none" xmlns="http://www.w3.org/2000/svg">
<path d="M0 14.5C0 6.49187 6.49187 0 14.5 0H68.5C76.5081 0 83 6.49187 83 14.5C83 22.5081 76.5081 29 68.5 29H14.5C6.49187 29 0 22.5081 0 14.5Z" fill="#B2B8BD"/>
<path d="M15.9148 9.81818H17.1477V16.5597C17.1477 17.2557 16.9837 17.8771 16.6555 18.424C16.3307 18.9676 15.8717 19.3968 15.2784 19.7116C14.6851 20.0232 13.9891 20.179 13.1903 20.179C12.3916 20.179 11.6955 20.0232 11.1023 19.7116C10.509 19.3968 10.0483 18.9676 9.72017 18.424C9.39536 17.8771 9.23295 17.2557 9.23295 16.5597V9.81818H10.4659V16.4602C10.4659 16.9574 10.5753 17.3999 10.794 17.7876C11.0128 18.1721 11.3243 18.4754 11.7287 18.6974C12.1364 18.9162 12.6236 19.0256 13.1903 19.0256C13.7571 19.0256 14.2443 18.9162 14.652 18.6974C15.0597 18.4754 15.3712 18.1721 15.5866 17.7876C15.8054 17.3999 15.9148 16.9574 15.9148 16.4602V9.81818ZM20.6241 15.4062V20H19.4508V12.3636H20.5843V13.5568H20.6838C20.8627 13.169 21.1345 12.8575 21.4991 12.6222C21.8637 12.3835 22.3343 12.2642 22.911 12.2642C23.4281 12.2642 23.8805 12.3703 24.2683 12.5824C24.6561 12.7912 24.9577 13.1094 25.1731 13.5369C25.3886 13.9612 25.4963 14.4981 25.4963 15.1477V20H24.323V15.2273C24.323 14.6274 24.1672 14.16 23.8556 13.8253C23.5441 13.4872 23.1165 13.3182 22.573 13.3182C22.1984 13.3182 21.8637 13.3994 21.5687 13.5618C21.277 13.7242 21.0467 13.9612 20.8777 14.2727C20.7086 14.5843 20.6241 14.9621 20.6241 15.4062ZM31.0408 12.3636V13.358H26.9244V12.3636H31.0408ZM28.1573 20V11.3097C28.1573 10.8722 28.2601 10.5076 28.4656 10.2159C28.671 9.92424 28.9379 9.70549 29.266 9.55966C29.5941 9.41383 29.9405 9.34091 30.305 9.34091C30.5934 9.34091 30.8287 9.36411 31.011 9.41051C31.1933 9.45691 31.3292 9.5 31.4187 9.53977L31.0806 10.554C31.021 10.5341 30.9381 10.5092 30.832 10.4794C30.7293 10.4496 30.5934 10.4347 30.4244 10.4347C30.0366 10.4347 29.7565 10.5324 29.5842 10.728C29.4151 10.9235 29.3306 11.2102 29.3306 11.5881V20H28.1573ZM37.4977 16.8778V12.3636H38.671V20H37.4977V18.7074H37.4181C37.2392 19.0952 36.9608 19.425 36.5829 19.6967C36.2051 19.9652 35.7278 20.0994 35.1511 20.0994C34.6738 20.0994 34.2496 19.995 33.8784 19.7862C33.5072 19.5741 33.2155 19.2559 33.0034 18.8317C32.7913 18.4041 32.6852 17.8655 32.6852 17.2159V12.3636H33.8585V17.1364C33.8585 17.6932 34.0143 18.1373 34.3258 18.4688C34.6407 18.8002 35.0417 18.9659 35.5289 18.9659C35.8206 18.9659 36.1172 18.8913 36.4189 18.7422C36.7238 18.593 36.979 18.3643 37.1845 18.0561C37.3933 17.7479 37.4977 17.3551 37.4977 16.8778ZM41.9933 9.81818V20H40.82V9.81818H41.9933ZM47.5428 12.3636V13.358H43.4263V12.3636H47.5428ZM44.6593 20V11.3097C44.6593 10.8722 44.762 10.5076 44.9675 10.2159C45.173 9.92424 45.4398 9.70549 45.7679 9.55966C46.0961 9.41383 46.4424 9.34091 46.807 9.34091C47.0953 9.34091 47.3307 9.36411 47.513 9.41051C47.6953 9.45691 47.8311 9.5 47.9206 9.53977L47.5826 10.554C47.5229 10.5341 47.44 10.5092 47.334 10.4794C47.2312 10.4496 47.0953 10.4347 46.9263 10.4347C46.5385 10.4347 46.2585 10.5324 46.0861 10.728C45.9171 10.9235 45.8326 11.2102 45.8326 11.5881V20H44.6593ZM49.1871 20V12.3636H50.3604V20H49.1871ZM49.7837 11.0909C49.555 11.0909 49.3578 11.013 49.1921 10.8572C49.0297 10.7015 48.9485 10.5142 48.9485 10.2955C48.9485 10.0767 49.0297 9.88944 49.1921 9.73366C49.3578 9.57789 49.555 9.5 49.7837 9.5C50.0124 9.5 50.208 9.57789 50.3704 9.73366C50.5361 9.88944 50.619 10.0767 50.619 10.2955C50.619 10.5142 50.5361 10.7015 50.3704 10.8572C50.208 11.013 50.0124 11.0909 49.7837 11.0909ZM53.6827 9.81818V20H52.5094V9.81818H53.6827ZM57.005 9.81818V20H55.8317V9.81818H57.005ZM62.3556 20.1591C61.6199 20.1591 60.9851 19.9967 60.4515 19.6719C59.9212 19.3438 59.5119 18.8864 59.2235 18.2997C58.9385 17.7098 58.796 17.0237 58.796 16.2415C58.796 15.4593 58.9385 14.7699 59.2235 14.1733C59.5119 13.5734 59.9129 13.1061 60.4267 12.7713C60.9437 12.4332 61.5469 12.2642 62.2363 12.2642C62.6341 12.2642 63.0268 12.3305 63.4146 12.4631C63.8024 12.5956 64.1554 12.8111 64.4735 13.1094C64.7917 13.4044 65.0453 13.7955 65.2342 14.2827C65.4231 14.7699 65.5176 15.3698 65.5176 16.0824V16.5795H59.6312V15.5653H64.3244C64.3244 15.1345 64.2382 14.75 64.0659 14.4119C63.8968 14.0739 63.6549 13.8071 63.34 13.6115C63.0285 13.416 62.6606 13.3182 62.2363 13.3182C61.769 13.3182 61.3646 13.4342 61.0233 13.6662C60.6852 13.8949 60.425 14.1932 60.2427 14.5611C60.0604 14.929 59.9693 15.3234 59.9693 15.7443V16.4205C59.9693 16.9972 60.0687 17.486 60.2676 17.8871C60.4698 18.2848 60.7498 18.5881 61.1078 18.7969C61.4657 19.0024 61.8817 19.1051 62.3556 19.1051C62.6639 19.1051 62.9423 19.062 63.1909 18.9759C63.4428 18.8864 63.6599 18.7538 63.8422 18.5781C64.0244 18.3991 64.1653 18.1771 64.2647 17.9119L65.3983 18.2301C65.2789 18.6146 65.0784 18.9527 64.7967 19.2443C64.515 19.5327 64.167 19.758 63.7527 19.9205C63.3384 20.0795 62.8727 20.1591 62.3556 20.1591ZM70.1859 20.1591C69.5495 20.1591 68.9877 19.9983 68.5005 19.6768C68.0133 19.352 67.6322 18.8946 67.3571 18.3047C67.082 17.7114 66.9444 17.0104 66.9444 16.2017C66.9444 15.3996 67.082 14.7036 67.3571 14.1136C67.6322 13.5237 68.015 13.0679 68.5055 12.7464C68.996 12.425 69.5628 12.2642 70.2058 12.2642C70.7029 12.2642 71.0957 12.3471 71.3841 12.5128C71.6757 12.6752 71.8978 12.8608 72.0502 13.0696C72.206 13.2751 72.327 13.4441 72.4132 13.5767H72.5126V9.81818H73.6859V20H72.5524V18.8267H72.4132C72.327 18.9659 72.2044 19.1416 72.0453 19.3537C71.8862 19.5625 71.6592 19.7498 71.3642 19.9155C71.0692 20.0779 70.6764 20.1591 70.1859 20.1591ZM70.345 19.1051C70.8156 19.1051 71.2134 18.9825 71.5382 18.7372C71.863 18.4886 72.1099 18.1456 72.2789 17.7081C72.448 17.2673 72.5325 16.7585 72.5325 16.1818C72.5325 15.6117 72.4496 15.1129 72.2839 14.6854C72.1182 14.2545 71.8729 13.9197 71.5481 13.6811C71.2233 13.4392 70.8223 13.3182 70.345 13.3182C69.8478 13.3182 69.4335 13.4458 69.1021 13.701C68.774 13.9529 68.527 14.2959 68.3613 14.7301C68.1989 15.161 68.1177 15.6449 68.1177 16.1818C68.1177 16.7254 68.2006 17.2192 68.3663 17.6634C68.5353 18.1042 68.7839 18.4555 69.112 18.7173C69.4435 18.9759 69.8545 19.1051 70.345 19.1051Z" fill="#12192C"/>
</svg>
